<svg xmlns="http://www.w3.org/2000/svg" xmlns:xlink="http://www.w3.org/1999/xlink" width="700" height="180" version="1.1"><style type="text/css">.floats{stroke:red;stroke-width:2px;fill:none}.label{font-weight:700;font-size:15pt;stroke:none;font-family:serif;fill:#000}.bytes{stroke:#000;stroke-width:1px;fill:#add8e6}.colors,.positions{stroke:none;fill:gray;fill-opacity:.3}.positions{fill:#ff0}.vecs{stroke:#00008b;stroke-width:3px;fill:none}.test{stroke:#000}</style><defs><g id="g_test"><line x1="0" x2="700" y1="30" y2="30" class="test"/></g><g id="g_float"><rect width="52.5" height="28" x="175" y="16" class="bytes"/><rect width="52.5" height="28" x="227.5" y="16" class="bytes"/><rect width="52.5" height="28" x="280" y="16" class="bytes"/><rect width="52.5" height="28" x="332.5" y="16" class="bytes"/><rect width="210" height="28" x="175" y="16" class="floats"/></g><g id="g_vec4"><rect width="17.5" height="28" x="175" y="16" class="bytes"/><rect width="17.5" height="28" x="192.5" y="16" class="bytes"/><rect width="17.5" height="28" x="210" y="16" class="bytes"/><rect width="17.5" height="28" x="227.5" y="16" class="bytes"/><rect width="17.5" height="28" x="245" y="16" class="bytes"/><rect width="17.5" height="28" x="262.5" y="16" class="bytes"/><rect width="17.5" height="28" x="280" y="16" class="bytes"/><rect width="17.5" height="28" x="297.5" y="16" class="bytes"/><rect width="17.5" height="28" x="315" y="16" class="bytes"/><rect width="17.5" height="28" x="332.5" y="16" class="bytes"/><rect width="17.5" height="28" x="350" y="16" class="bytes"/><rect width="17.5" height="28" x="367.5" y="16" class="bytes"/><rect width="17.5" height="28" x="385" y="16" class="bytes"/><rect width="17.5" height="28" x="402.5" y="16" class="bytes"/><rect width="17.5" height="28" x="420" y="16" class="bytes"/><rect width="17.5" height="28" x="437.5" y="16" class="bytes"/><rect width="70" height="28" x="175" y="16" class="floats"/><rect width="70" height="28" x="245" y="16" class="floats"/><rect width="70" height="28" x="315" y="16" class="floats"/><rect width="70" height="28" x="385" y="16" class="floats"/><rect width="280" height="28" x="175" y="16" class="vecs"/></g><g id="g_vertexData"><rect width="21.583" height="28" x="175" y="16" class="floats"/><rect width="21.583" height="28" x="196.583" y="16" class="floats"/><rect width="21.583" height="28" x="218.167" y="16" class="floats"/><rect width="21.583" height="28" x="239.75" y="16" class="floats"/><rect width="21.583" height="28" x="261.333" y="16" class="floats"/><rect width="21.583" height="28" x="282.917" y="16" class="floats"/><rect width="21.583" height="28" x="304.5" y="16" class="floats"/><rect width="21.583" height="28" x="326.083" y="16" class="floats"/><rect width="21.583" height="28" x="347.667" y="16" class="floats"/><rect width="21.583" height="28" x="369.25" y="16" class="floats"/><rect width="21.583" height="28" x="390.833" y="16" class="floats"/><rect width="21.583" height="28" x="412.417" y="16" class="floats"/><rect width="21.583" height="28" x="434" y="16" class="floats"/><rect width="21.583" height="28" x="455.583" y="16" class="floats"/><rect width="21.583" height="28" x="477.167" y="16" class="floats"/><rect width="21.583" height="28" x="498.75" y="16" class="floats"/><rect width="21.583" height="28" x="520.333" y="16" class="floats"/><rect width="21.583" height="28" x="541.917" y="16" class="floats"/><rect width="21.583" height="28" x="563.5" y="16" class="floats"/><rect width="21.583" height="28" x="585.083" y="16" class="floats"/><rect width="21.583" height="28" x="606.667" y="16" class="floats"/><rect width="21.583" height="28" x="628.25" y="16" class="floats"/><rect width="21.583" height="28" x="649.833" y="16" class="floats"/><rect width="21.583" height="28" x="671.417" y="16" class="floats"/><rect width="86.333" height="28" x="175" y="16" class="vecs"/><rect width="86.333" height="28" x="261.333" y="16" class="vecs"/><rect width="86.333" height="28" x="347.667" y="16" class="vecs"/><rect width="86.333" height="28" x="434" y="16" class="vecs"/><rect width="86.333" height="28" x="520.333" y="16" class="vecs"/><rect width="86.333" height="28" x="606.667" y="16" class="vecs"/><rect width="259" height="28" x="175" y="16" class="positions"/><rect width="259" height="28" x="434" y="16" class="colors"/></g></defs><text x="0" y="33.5" class="label">float (4 bytes):</text><text x="0" y="93.5" class="label">vec4 (16 bytes):</text><text x="0" y="153.5" class="label">vertexData:</text><use width="700" height="60" x="0" y="0" xlink:href="#g_float"/><use width="700" height="60" x="0" y="60" xlink:href="#g_vec4"/><use width="700" height="60" x="0" y="120" xlink:href="#g_vertexData"/></svg>