<svg xmlns="http://www.w3.org/2000/svg" xmlns:xlink="http://www.w3.org/1999/xlink" width="300" height="300" version="1.1"><style type="text/css">.point{fill:#afafff;stroke:#afafff}.__axis_arrow_end1{marker-end:url(#__axis_arrow1)}.text{font-family:monospace;font-weight:700;stroke:none;font-size:25px;fill:#afafff}.__axis1,.__grid1{fill:none}.__grid1{stroke:#ccc;stroke-width:1px}.__axis1{stroke:#000;stroke-width:2px}</style><defs><marker id="__axis_arrow1" markerHeight="8" markerUnits="userSpaceOnUse" markerWidth="10" orient="auto" refX="10" refY="4"><path d="M 10 4 L 0 0 L 0 8 Z" class="fill_black thin"/></marker><g id="g_axes"><path d="M 0 300 V 0 M 30 300 V 0 M 60 300 V 0 M 90 300 V 0 M 120 300 V 0 M 150 300 V 0 M 180 300 V 0 M 210 300 V 0 M 240 300 V 0 M 270 300 V 0 M 300 300 V 0 M 0 300 H 300 M 0 270 H 300 M 0 240 H 300 M 0 210 H 300 M 0 180 H 300 M 0 150 H 300 M 0 120 H 300 M 0 90 H 300 M 0 60 H 300 M 0 30 H 300 M 0 0 H 300" class="__grid1"/><line x1="150" x2="150" y1="150" y2="300" class="__axis1 __axis_arrow_end1"/><line x1="150" x2="150" y1="150" y2="0" class="__axis1 __axis_arrow_end1"/><line x1="150" x2="300" y1="150" y2="150" class="__axis1 __axis_arrow_end1"/><line x1="150" x2="0" y1="150" y2="150" class="__axis1 __axis_arrow_end1"/></g></defs><use width="300" height="300" x="0" y="0" xlink:href="#g_axes"/><circle cx="210" cy="60" r="7.5" class="point"/><text x="215" y="48" class="text">A</text><circle cx="60" cy="75" r="7.5" class="point"/><text x="65" y="63" class="text">B</text><circle cx="165" cy="240" r="7.5" class="point"/><text x="170" y="228" class="text">C</text></svg>