<svg xmlns="http://www.w3.org/2000/svg" xmlns:xlink="http://www.w3.org/1999/xlink" width="300" height="300" version="1.1"><style type="text/css">.__grid1{stroke:#ccc;stroke-width:1px;fill:none}.__axis1,.arrowhead{stroke:#000}.arrowhead{fill:#000}.__axis1{stroke-width:2px;fill:none}.__axis_arrow_end1{marker-end:url(#__axis_arrow1)}.arrowhead-sum{fill:red;stroke:red}.text{font-size:25px;font-family:monospace;stroke:none;font-weight:700;fill:#000}.vector{marker-end:url(#arrow);stroke:#000}.text-sum{font-size:25px;font-weight:700;font-family:monospace;stroke:none;text-anchor:end;fill:red}.vector-sum{marker-end:url(#arrow-sum);stroke:red}</style><defs><marker id="__axis_arrow1" markerHeight="8" markerUnits="userSpaceOnUse" markerWidth="10" orient="auto" refX="10" refY="4"><path d="M 10 4 L 0 0 L 0 8 Z" class="fill_black thin"/></marker><g id="g_axes"><path d="M 0 300 V 0 M 30 300 V 0 M 60 300 V 0 M 90 300 V 0 M 120 300 V 0 M 150 300 V 0 M 180 300 V 0 M 210 300 V 0 M 240 300 V 0 M 270 300 V 0 M 300 300 V 0 M 0 300 H 300 M 0 270 H 300 M 0 240 H 300 M 0 210 H 300 M 0 180 H 300 M 0 150 H 300 M 0 120 H 300 M 0 90 H 300 M 0 60 H 300 M 0 30 H 300 M 0 0 H 300" class="__grid1"/><line x1="150" x2="150" y1="210" y2="300" class="__axis1 __axis_arrow_end1"/><line x1="150" x2="150" y1="210" y2="0" class="__axis1 __axis_arrow_end1"/><line x1="150" x2="300" y1="210" y2="210" class="__axis1 __axis_arrow_end1"/><line x1="150" x2="0" y1="210" y2="210" class="__axis1 __axis_arrow_end1"/></g></defs><defs><marker id="arrow" markerHeight="8" markerUnits="userSpaceOnUse" markerWidth="10" orient="auto" refX="10" refY="4"><path d="M 10 4 L 0 0 L 0 8 Z" class="arrowhead"/></marker><marker id="arrow-sum" markerHeight="8" markerUnits="userSpaceOnUse" markerWidth="10" orient="auto" refX="10" refY="4"><path d="M 10 4 L 0 0 L 0 8 Z" class="arrowhead-sum"/></marker></defs><use width="300" height="300" x="0" y="0" xlink:href="#g_axes"/><line x1="150" x2="240" y1="210" y2="90" class="vector"/><text x="205" y="160" class="text">A</text><line x1="150" x2="60" y1="90" y2="210" class="vector-sum"/><text x="100" y="145" class="text-sum">-A</text></svg>