<svg xmlns="http://www.w3.org/2000/svg" xmlns:xlink="http://www.w3.org/1999/xlink" width="300" height="300" version="1.1"><style type="text/css">.arrowhead,.text{fill:#000;stroke:#000}.text{font-size:25px;font-family:monospace;stroke:none;font-weight:700}.__axis_arrow_end1{marker-end:url(#__axis_arrow1)}.vector-sum{marker-end:url(#arrow-sum);stroke:red}.vector{marker-end:url(#arrow);stroke:#000}.text-sum{font-size:25px;font-family:monospace;stroke:none;font-weight:700;fill:red}.__grid1{stroke:#ccc;stroke-width:1px;fill:none}.arrowhead-sum{fill:red;stroke:red}.__axis1{stroke:#000;stroke-width:2px;fill:none}</style><defs><marker id="__axis_arrow1" markerHeight="8" markerUnits="userSpaceOnUse" markerWidth="10" orient="auto" refX="10" refY="4"><path d="M 10 4 L 0 0 L 0 8 Z" class="fill_black thin"/></marker><g id="g_axes"><path d="M 0 300 V 0 M 21.428571428571 300 V 0 M 42.857142857143 300 V 0 M 64.285714285714 300 V 0 M 85.714285714286 300 V 0 M 107.14285714286 300 V 0 M 128.57142857143 300 V 0 M 150 300 V 0 M 171.42857142857 300 V 0 M 192.85714285714 300 V 0 M 214.28571428571 300 V 0 M 235.71428571429 300 V 0 M 257.14285714286 300 V 0 M 278.57142857143 300 V 0 M 300 300 V 0 M 0 300 H 300 M 0 278.57142857143 H 300 M 0 257.14285714286 H 300 M 0 235.71428571429 H 300 M 0 214.28571428571 H 300 M 0 192.85714285714 H 300 M 0 171.42857142857 H 300 M 0 150 H 300 M 0 128.57142857143 H 300 M 0 107.14285714286 H 300 M 0 85.714285714286 H 300 M 0 64.285714285714 H 300 M 0 42.857142857143 H 300 M 0 21.428571428571 H 300 M 0 0 H 300" class="__grid1"/><line x1="150" x2="150" y1="235.714" y2="300" class="__axis1 __axis_arrow_end1"/><line x1="150" x2="150" y1="235.714" y2="0" class="__axis1 __axis_arrow_end1"/><line x1="150" x2="300" y1="235.714" y2="235.714" class="__axis1 __axis_arrow_end1"/><line x1="150" x2="0" y1="235.714" y2="235.714" class="__axis1 __axis_arrow_end1"/></g></defs><defs><marker id="arrow" markerHeight="8" markerUnits="userSpaceOnUse" markerWidth="10" orient="auto" refX="10" refY="4"><path d="M 10 4 L 0 0 L 0 8 Z" class="arrowhead"/></marker><marker id="arrow-sum" markerHeight="8" markerUnits="userSpaceOnUse" markerWidth="10" orient="auto" refX="10" refY="4"><path d="M 10 4 L 0 0 L 0 8 Z" class="arrowhead-sum"/></marker></defs><use width="300" height="300" x="0" y="0" xlink:href="#g_axes"/><line x1="150" x2="192.857" y1="235.714" y2="171.429" class="vector"/><text x="151.429" y="208.571" class="text">A</text><line x1="64.286" x2="192.857" y1="235.714" y2="42.857" class="vector-sum"/><text x="78.571" y="134.286" class="text-sum">3*A</text><line x1="214.286" x2="235.714" y1="235.714" y2="203.571" class="vector-sum"/><text x="218" y="199.643" class="text-sum">0.5*A</text></svg>