<svg xmlns="http://www.w3.org/2000/svg" xmlns:svg="http://www.w3.org/2000/svg" xmlns:xlink="http://www.w3.org/1999/xlink" id="svg2" width="700" height="375" stroke-miterlimit="10" version="1.1" style="fill:none;stroke:none"><metadata id="metadata36"/><g id="layer1"><path id="path4" d="m 247,60.87021 0,0 c 0,-7.98065 6.4696,-14.45026 14.45026,-14.45026 l 170.56406,0 c 3.8324,0 7.50787,1.52243 10.2178,4.23238 2.71,2.70996 4.23245,6.38544 4.23245,10.21788 l 0,52.98923 c 0,7.98068 -6.46961,14.45028 -14.45025,14.45028 l -170.56406,0 C 253.4696,128.30972 247,121.84012 247,113.85944 z" style="fill:#efecfd;fill-opacity:1;stroke:#000;stroke-width:1;stroke-linecap:butt;stroke-linejoin:round;stroke-miterlimit:10;stroke-dasharray:none"/><path id="path4-4" d="m 247,160.50538 0,0 c 0,-7.98066 6.46961,-14.45027 14.45027,-14.45027 l 170.56405,0 c 3.83241,0 7.50787,1.52243 10.21781,4.23238 2.70999,2.70996 4.23245,6.38544 4.23245,10.21789 l 0,52.98922 c 0,7.98069 -6.46961,14.45028 -14.45026,14.45028 l -170.56405,0 C 253.46961,227.94488 247,221.47528 247,213.4946 z" style="fill:#efecfd;fill-opacity:1;stroke:#000;stroke-width:1;stroke-linecap:butt;stroke-linejoin:round;stroke-miterlimit:10;stroke-dasharray:none"/><path id="path4-2" d="m 247,256.50538 0,0 c 0,-7.98066 6.46961,-14.45027 14.45027,-14.45027 l 170.56405,0 c 3.83241,0 7.50787,1.52243 10.21781,4.23238 2.70999,2.70996 4.23245,6.38544 4.23245,10.21789 l 0,52.98922 c 0,7.98068 -6.46961,14.45028 -14.45026,14.45028 l -170.56406,0 C 253.46961,323.94488 247,317.47528 247,309.4946 z" style="fill:#efecfd;fill-opacity:1;stroke:#000;stroke-width:1;stroke-linecap:butt;stroke-linejoin:round;stroke-miterlimit:10;stroke-dasharray:none"/><path id="path16" d="m 23,49.204746 83.40157,0 0,35.795254 L 23,85 z" style="fill:#d2fff1;fill-opacity:1;stroke:#000;stroke-width:.73229474;stroke-linecap:butt;stroke-linejoin:round;stroke-miterlimit:10;stroke-dasharray:none"/><path id="path16-0" d="m 23,85 83.40158,0 0,35.79526 -83.40158,0 z" style="fill:#d2fff1;fill-opacity:1;stroke:#000;stroke-width:.73229474;stroke-linecap:butt;stroke-linejoin:round;stroke-miterlimit:10;stroke-dasharray:none"/><path id="path16-0-1" d="m 23,121.10237 83.40158,0 0,35.79526 -83.40158,0 z" style="fill:#d2fff1;fill-opacity:1;stroke:#000;stroke-width:.73229474;stroke-linecap:butt;stroke-linejoin:round;stroke-miterlimit:10;stroke-dasharray:none"/></g><g id="layer2"><text xml:space="preserve" style="font-size:20px;font-style:normal;font-variant:normal;font-weight:400;font-stretch:normal;text-align:start;line-height:125%;writing-mode:lr-tb;text-anchor:start;fill:#000;fill-opacity:1;stroke:none;font-family:Serif;-inkscape-font-specification:Serif" id="text4042" x="13" y="39"><tspan id="tspan4044" x="13" y="39"><tspan id="tspan4046" x="13" y="39">Buffer Object</tspan></tspan></text><text xml:space="preserve" style="font-size:20px;font-style:normal;font-variant:normal;font-weight:400;font-stretch:normal;text-align:start;line-height:125%;writing-mode:lr-tb;text-anchor:start;fill:#000;fill-opacity:1;stroke:none;font-family:Serif;-inkscape-font-specification:Serif" id="text4066" x="284" y="39"><tspan id="tspan4068" x="284" y="39"><tspan id="tspan4070" x="284" y="39">Vertex Shaders</tspan></tspan></text><text xml:space="preserve" style="font-size:20px;font-style:normal;font-variant:normal;font-weight:400;font-stretch:normal;text-align:start;line-height:125%;writing-mode:lr-tb;text-anchor:start;fill:#000;fill-opacity:1;stroke:none;font-family:Serif;-inkscape-font-specification:Serif" id="text4036" x="35.827" y="73.421"><tspan id="tspan4038" x="35.827" y="73.421"><tspan id="tspan4040" x="35.827" y="73.421">Index 0</tspan></tspan></text><text xml:space="preserve" style="font-size:20px;font-style:normal;font-variant:normal;font-weight:400;font-stretch:normal;text-align:start;line-height:125%;writing-mode:lr-tb;text-anchor:start;fill:#000;fill-opacity:1;stroke:none;font-family:Serif;-inkscape-font-specification:Serif" id="text4030" x="35.827" y="109.216"><tspan id="tspan4032" x="35.827" y="109.216"><tspan id="tspan4034" x="35.827" y="109.216">Index 1</tspan></tspan></text><text xml:space="preserve" style="font-size:20px;font-style:normal;font-variant:normal;font-weight:400;font-stretch:normal;text-align:start;line-height:125%;writing-mode:lr-tb;text-anchor:start;fill:#000;fill-opacity:1;stroke:none;font-family:Serif;-inkscape-font-specification:Serif" id="text4024" x="35.827" y="145.318"><tspan id="tspan4026" x="35.827" y="145.318"><tspan id="tspan4028" x="35.827" y="145.318">Index 2</tspan></tspan></text><text xml:space="preserve" style="font-size:20px;font-style:normal;font-variant:normal;font-weight:400;font-stretch:normal;text-align:start;line-height:125%;writing-mode:lr-tb;text-anchor:start;fill:#00745e;fill-opacity:1;stroke:none;font-family:Serif;-inkscape-font-specification:Serif" id="text4060" x="260.727" y="70.344"><tspan id="tspan4062" x="260.727" y="70.344"><tspan id="tspan4064" x="260.727" y="70.344" style="fill:#00745e;fill-opacity:1">in vec4 position</tspan></tspan></text><text xml:space="preserve" style="font-size:20px;font-style:normal;font-variant:normal;font-weight:400;font-stretch:normal;text-align:start;line-height:125%;writing-mode:lr-tb;text-anchor:start;fill:#00745e;fill-opacity:1;stroke:none;font-family:Serif;-inkscape-font-specification:Serif" id="text4054" x="260.727" y="169.98"><tspan id="tspan4056" x="260.727" y="169.98"><tspan id="tspan4058" x="260.727" y="169.98" style="fill:#00745e;fill-opacity:1">in vec4 position</tspan></tspan></text><text xml:space="preserve" style="font-size:20px;font-style:normal;font-variant:normal;font-weight:400;font-stretch:normal;text-align:start;line-height:125%;writing-mode:lr-tb;text-anchor:start;fill:#00745e;fill-opacity:1;stroke:none;font-family:Serif;-inkscape-font-specification:Serif" id="text4048" x="260.727" y="265.98"><tspan id="tspan4050" x="260.727" y="265.98"><tspan id="tspan4052" x="260.727" y="265.98" style="fill:#00745e;fill-opacity:1">in vec4 position</tspan></tspan></text><path style="fill:none;stroke:#00745e;stroke-width:1px;stroke-linecap:butt;stroke-linejoin:miter;stroke-opacity:1" id="path3912" d="m 106,68 c 20.53861,0 28.07937,-13.597416 41.30057,-13.597416 18.59259,0.516592 46.78578,7.078799 65.43463,7.362217 C 231.83848,62.055125 239.29894,65 258,65"/><path style="fill:none;stroke:#00745e;stroke-width:1px;stroke-linecap:butt;stroke-linejoin:miter;stroke-opacity:1" id="path3914" d="m 106.5,102.5 c 29.39782,0 58.60756,14.24592 77.6668,30.75 34.14983,29.57157 30.02055,31.10355 73.8332,30.75"/><path style="fill:none;stroke:#00745e;stroke-width:1px;stroke-linecap:butt;stroke-linejoin:miter;stroke-opacity:1" id="path3916" d="m 106.06602,138.47278 c 38.18376,-1.06066 49.49747,12.72792 64.34672,51.97235 14.84924,39.24442 40.9774,70.71068 85.91347,70.71068"/><path style="fill:none;stroke:#000;stroke-width:1px;stroke-linecap:butt;stroke-linejoin:miter;stroke-opacity:1" id="path4006" d="m 538,107 c -92.52273,0 -92.16917,0 -92.16917,0"/><path style="fill:none;stroke:#000;stroke-width:1px;stroke-linecap:butt;stroke-linejoin:miter;stroke-opacity:1" id="path4008" d="m 538,209.18346 c -92.52273,0 -92.16917,0 -92.16917,0"/><path style="fill:none;stroke:#000;stroke-width:1px;stroke-linecap:butt;stroke-linejoin:miter;stroke-opacity:1" id="path4010" d="m 538,302.168 -92.16917,0"/><text xml:space="preserve" style="font-size:20px;font-style:normal;font-variant:normal;font-weight:400;font-stretch:normal;text-align:start;line-height:125%;writing-mode:lr-tb;text-anchor:start;fill:#000;fill-opacity:1;stroke:none;font-family:Serif;-inkscape-font-specification:Serif" id="text4072" x="541" y="215"><tspan id="tspan4074" x="541" y="215"><tspan id="tspan4076" x="541" y="215">gl_Position</tspan></tspan></text><use id="use4086" width="700" height="375" x="0" y="0" transform="translate(0,92)" xlink:href="#text4072"/><use id="use4088" width="700" height="375" x="0" y="0" transform="translate(0,-104)" xlink:href="#text4072"/></g></svg>