<svg xmlns="http://www.w3.org/2000/svg" xmlns:svg="http://www.w3.org/2000/svg" xmlns:xlink="http://www.w3.org/1999/xlink" id="svg2" width="475" height="375" version="1.2" style="fill:none;stroke:none"><metadata id="metadata36"/><g id="layer1"><path id="path4" d="m 247,60.87021 0,0 c 0,-7.98065 6.4696,-14.45026 14.45026,-14.45026 l 170.56406,0 c 3.8324,0 7.50787,1.52243 10.2178,4.23238 2.71,2.70996 4.23245,6.38544 4.23245,10.21788 l 0,52.98923 c 0,7.98068 -6.46961,14.45028 -14.45025,14.45028 l -170.56406,0 C 253.4696,128.30972 247,121.84012 247,113.85944 z" style="fill:#efecfd;fill-opacity:1;stroke:#000;stroke-width:1;stroke-linecap:butt;stroke-linejoin:round;stroke-miterlimit:10;stroke-dasharray:none"/><path id="path4-4" d="m 247,160.50538 0,0 c 0,-7.98066 6.46961,-14.45027 14.45027,-14.45027 l 170.56405,0 c 3.83241,0 7.50787,1.52243 10.21781,4.23238 2.70999,2.70996 4.23245,6.38544 4.23245,10.21789 l 0,52.98922 c 0,7.98069 -6.46961,14.45028 -14.45026,14.45028 l -170.56405,0 C 253.46961,227.94488 247,221.47528 247,213.4946 z" style="fill:#efecfd;fill-opacity:1;stroke:#000;stroke-width:1;stroke-linecap:butt;stroke-linejoin:round;stroke-miterlimit:10;stroke-dasharray:none"/><path id="path4-2" d="m 247,256.50538 0,0 c 0,-7.98066 6.46961,-14.45027 14.45027,-14.45027 l 170.56405,0 c 3.83241,0 7.50787,1.52243 10.21781,4.23238 2.70999,2.70996 4.23245,6.38544 4.23245,10.21789 l 0,52.98922 c 0,7.98068 -6.46961,14.45028 -14.45026,14.45028 l -170.56406,0 C 253.46961,323.94488 247,317.47528 247,309.4946 z" style="fill:#efecfd;fill-opacity:1;stroke:#000;stroke-width:1;stroke-linecap:butt;stroke-linejoin:round;stroke-miterlimit:10;stroke-dasharray:none"/><path id="path16" d="m 23,49.204746 83.40157,0 0,35.795254 L 23,85 z" style="fill:#d2fff1;fill-opacity:1;stroke:#000;stroke-width:.73229474;stroke-linecap:butt;stroke-linejoin:round;stroke-miterlimit:10;stroke-dasharray:none"/><path id="path16-0" d="m 23,85 83.40158,0 0,35.79526 -83.40158,0 z" style="fill:#d2fff1;fill-opacity:1;stroke:#000;stroke-width:.73229474;stroke-linecap:butt;stroke-linejoin:round;stroke-miterlimit:10;stroke-dasharray:none"/><path id="path16-0-1" d="m 23,121.10237 83.40158,0 0,35.79526 -83.40158,0 z" style="fill:#d2fff1;fill-opacity:1;stroke:#000;stroke-width:.73229474;stroke-linecap:butt;stroke-linejoin:round;stroke-miterlimit:10;stroke-dasharray:none"/><path id="path16-1" d="m 23,157.10479 83.40157,0 0,35.79525 -83.40157,0 z" style="fill:#ffa975;fill-opacity:1;stroke:#000;stroke-width:.73229474;stroke-linecap:butt;stroke-linejoin:round;stroke-miterlimit:10;stroke-dasharray:none"/><path id="path16-0-7" d="m 23,192.90004 83.40158,0 0,35.79526 -83.40158,0 z" style="fill:#ffa975;fill-opacity:1;stroke:#000;stroke-width:.73229474;stroke-linecap:butt;stroke-linejoin:round;stroke-miterlimit:10;stroke-dasharray:none"/><path id="path16-0-1-4" d="m 23,229.00241 83.40158,0 0,35.79526 -83.40158,0 z" style="fill:#ffa975;fill-opacity:1;stroke:#000;stroke-width:.73229474;stroke-linecap:butt;stroke-linejoin:round;stroke-miterlimit:10;stroke-dasharray:none"/></g><g id="layer2"><text id="text4042" x="13" y="39" xml:space="preserve" style="font-size:20px;font-style:normal;font-variant:normal;font-weight:400;font-stretch:normal;text-align:start;line-height:125%;writing-mode:lr-tb;text-anchor:start;fill:#000;fill-opacity:1;stroke:none;font-family:Serif;-inkscape-font-specification:Serif"><tspan id="tspan4044" x="13" y="39"><tspan id="tspan4046" x="13" y="39">Buffer Object</tspan></tspan></text><text id="text4066" x="284" y="39" xml:space="preserve" style="font-size:20px;font-style:normal;font-variant:normal;font-weight:400;font-stretch:normal;text-align:start;line-height:125%;writing-mode:lr-tb;text-anchor:start;fill:#000;fill-opacity:1;stroke:none;font-family:Serif;-inkscape-font-specification:Serif"><tspan id="tspan4068" x="284" y="39"><tspan id="tspan4070" x="284" y="39">Vertex Shaders</tspan></tspan></text><text id="text4036" x="35.827" y="73.421" xml:space="preserve" style="font-size:20px;font-style:normal;font-variant:normal;font-weight:400;font-stretch:normal;text-align:start;line-height:125%;writing-mode:lr-tb;text-anchor:start;fill:#000;fill-opacity:1;stroke:none;font-family:Serif;-inkscape-font-specification:Serif"><tspan id="tspan4038" x="35.827" y="73.421"><tspan id="tspan4040" x="35.827" y="73.421">Index 0</tspan></tspan></text><text id="text4030" x="35.827" y="109.216" xml:space="preserve" style="font-size:20px;font-style:normal;font-variant:normal;font-weight:400;font-stretch:normal;text-align:start;line-height:125%;writing-mode:lr-tb;text-anchor:start;fill:#000;fill-opacity:1;stroke:none;font-family:Serif;-inkscape-font-specification:Serif"><tspan id="tspan4032" x="35.827" y="109.216"><tspan id="tspan4034" x="35.827" y="109.216">Index 1</tspan></tspan></text><text id="text4024" x="35.827" y="145.318" xml:space="preserve" style="font-size:20px;font-style:normal;font-variant:normal;font-weight:400;font-stretch:normal;text-align:start;line-height:125%;writing-mode:lr-tb;text-anchor:start;fill:#000;fill-opacity:1;stroke:none;font-family:Serif;-inkscape-font-specification:Serif"><tspan id="tspan4026" x="35.827" y="145.318"><tspan id="tspan4028" x="35.827" y="145.318">Index 2</tspan></tspan></text><text id="text4060" x="260.75" y="70.344" xml:space="preserve" style="font-size:20px;font-style:normal;font-variant:normal;font-weight:400;font-stretch:normal;text-align:start;line-height:125%;writing-mode:lr-tb;text-anchor:start;fill:#00745e;fill-opacity:1;stroke:none;font-family:Serif;-inkscape-font-specification:Serif"><tspan id="tspan4062" x="260.75" y="70.344"><tspan id="tspan4064" x="260.75" y="70.344" style="fill:#00745e;fill-opacity:1">in vec4 position</tspan></tspan></text><text id="text4054" x="260.75" y="168.98" xml:space="preserve" style="font-size:20px;font-style:normal;font-variant:normal;font-weight:400;font-stretch:normal;text-align:start;line-height:125%;writing-mode:lr-tb;text-anchor:start;fill:#00745e;fill-opacity:1;stroke:none;font-family:Serif;-inkscape-font-specification:Serif"><tspan id="tspan4056" x="260.75" y="168.98"><tspan id="tspan4058" x="260.75" y="168.98" style="fill:#00745e;fill-opacity:1">in vec4 position</tspan></tspan></text><text id="text4048" x="260.75" y="266.23" xml:space="preserve" style="font-size:20px;font-style:normal;font-variant:normal;font-weight:400;font-stretch:normal;text-align:start;line-height:125%;writing-mode:lr-tb;text-anchor:start;fill:#00745e;fill-opacity:1;stroke:none;font-family:Serif;-inkscape-font-specification:Serif"><tspan id="tspan4050" x="260.75" y="266.23"><tspan id="tspan4052" x="260.75" y="266.23" style="fill:#00745e;fill-opacity:1">in vec4 position</tspan></tspan></text><path id="path3912" d="m 106,68 c 20.53861,0 28.07937,-13.597416 41.30057,-13.597416 18.59259,0.516592 46.78578,7.078799 65.43463,7.362217 C 231.83848,62.055125 239.29894,65 258,65" style="fill:none;stroke:#00745e;stroke-width:1px;stroke-linecap:butt;stroke-linejoin:miter;stroke-opacity:1"/><path id="path3914" d="m 106.5,102.5 c 29.39782,0 58.60756,14.24592 77.6668,30.75 34.14983,29.57157 30.02055,31.10355 73.8332,30.75" style="fill:none;stroke:#00745e;stroke-width:1px;stroke-linecap:butt;stroke-linejoin:miter;stroke-opacity:1"/><path id="path3916" d="m 106.06602,138.47278 c 38.18376,-1.06066 49.49747,12.72792 64.34672,51.97235 14.84924,39.24442 40.9774,70.71068 85.91347,70.71068" style="fill:none;stroke:#00745e;stroke-width:1px;stroke-linecap:butt;stroke-linejoin:miter;stroke-opacity:1"/><text id="text4036-0" x="35.827" y="181.321" xml:space="preserve" style="font-size:20px;font-style:normal;font-variant:normal;font-weight:400;font-stretch:normal;text-align:start;line-height:125%;writing-mode:lr-tb;text-anchor:start;fill:#000;fill-opacity:1;stroke:none;font-family:Serif;-inkscape-font-specification:Serif"><tspan id="tspan4038-9" x="35.827" y="181.321"><tspan id="tspan4040-4" x="35.827" y="181.321">Index 0</tspan></tspan></text><text id="text4030-8" x="35.827" y="217.116" xml:space="preserve" style="font-size:20px;font-style:normal;font-variant:normal;font-weight:400;font-stretch:normal;text-align:start;line-height:125%;writing-mode:lr-tb;text-anchor:start;fill:#000;fill-opacity:1;stroke:none;font-family:Serif;-inkscape-font-specification:Serif"><tspan id="tspan4032-8" x="35.827" y="217.116"><tspan id="tspan4034-2" x="35.827" y="217.116">Index 1</tspan></tspan></text><text id="text4024-4" x="35.827" y="253.218" xml:space="preserve" style="font-size:20px;font-style:normal;font-variant:normal;font-weight:400;font-stretch:normal;text-align:start;line-height:125%;writing-mode:lr-tb;text-anchor:start;fill:#000;fill-opacity:1;stroke:none;font-family:Serif;-inkscape-font-specification:Serif"><tspan id="tspan4026-5" x="35.827" y="253.218"><tspan id="tspan4028-5" x="35.827" y="253.218">Index 2</tspan></tspan></text><text id="text3042" x="260.75" y="291.594" xml:space="preserve" style="font-size:20px;font-style:normal;font-variant:normal;font-weight:400;font-stretch:normal;text-align:start;line-height:125%;letter-spacing:0;word-spacing:0;writing-mode:lr-tb;text-anchor:start;fill:#a46d4a;fill-opacity:1;stroke:none;font-family:Serif;-inkscape-font-specification:Serif"><tspan id="tspan3044" x="260.75" y="291.594"><tspan id="tspan3046" x="260.75" y="291.594">in vec4 color</tspan></tspan></text><use id="use3812" width="475" height="375" x="0" y="0" transform="translate(0,-98.75)" xlink:href="#text3042"/><use id="use3812" width="475" height="375" x="0" y="0" transform="translate(0,-196.75)" xlink:href="#text3042"/><path id="path3814" d="M 106.25,176 C 178,176 181,90.5 256,90.5" style="fill:none;stroke:#a46d4a;stroke-width:1px;stroke-linecap:butt;stroke-linejoin:miter;stroke-opacity:1"/><path id="path3816" d="m 106.75,211.25 c 65,0 95.5,-21.75 149.25,-21.75" style="fill:none;stroke:#a46d4a;stroke-width:1px;stroke-linecap:butt;stroke-linejoin:miter;stroke-opacity:1"/><path id="path3818" d="m 106.5,248.5 c 68.75,0 96,38.5 148.5,38.5" style="fill:none;stroke:#a46d4a;stroke-width:1px;stroke-linecap:butt;stroke-linejoin:miter;stroke-opacity:1"/></g></svg>