<svg xmlns="http://www.w3.org/2000/svg" xmlns:xlink="http://www.w3.org/1999/xlink" width="350" height="350" version="1.1"><style type="text/css">.color_0,.color_1{fill:#000;stroke:none}.color_1{fill:#fff}.grid{stroke:#888;stroke-width:1.5px;fill:none}.frag_area{stroke-opacity:.7;stroke-width:7px;stroke-linejoin:round;stroke:red;fill:none}.sample_pt{fill:#daa520;stroke:none}</style><rect width="21.875" height="21.875" x="0" y="0" class="color_1"/><rect width="21.875" height="21.875" x="21.875" y="0" class="color_1"/><rect width="21.875" height="21.875" x="43.75" y="0" class="color_1"/><rect width="21.875" height="21.875" x="65.625" y="0" class="color_1"/><rect width="21.875" height="21.875" x="87.5" y="0" class="color_0"/><rect width="21.875" height="21.875" x="109.375" y="0" class="color_0"/><rect width="21.875" height="21.875" x="131.25" y="0" class="color_0"/><rect width="21.875" height="21.875" x="153.125" y="0" class="color_0"/><rect width="21.875" height="21.875" x="175" y="0" class="color_1"/><rect width="21.875" height="21.875" x="196.875" y="0" class="color_1"/><rect width="21.875" height="21.875" x="218.75" y="0" class="color_1"/><rect width="21.875" height="21.875" x="240.625" y="0" class="color_1"/><rect width="21.875" height="21.875" x="262.5" y="0" class="color_0"/><rect width="21.875" height="21.875" x="284.375" y="0" class="color_0"/><rect width="21.875" height="21.875" x="306.25" y="0" class="color_0"/><rect width="21.875" height="21.875" x="328.125" y="0" class="color_0"/><rect width="21.875" height="21.875" x="0" y="21.875" class="color_1"/><rect width="21.875" height="21.875" x="21.875" y="21.875" class="color_1"/><rect width="21.875" height="21.875" x="43.75" y="21.875" class="color_1"/><rect width="21.875" height="21.875" x="65.625" y="21.875" class="color_1"/><rect width="21.875" height="21.875" x="87.5" y="21.875" class="color_0"/><rect width="21.875" height="21.875" x="109.375" y="21.875" class="color_0"/><rect width="21.875" height="21.875" x="131.25" y="21.875" class="color_0"/><rect width="21.875" height="21.875" x="153.125" y="21.875" class="color_0"/><rect width="21.875" height="21.875" x="175" y="21.875" class="color_1"/><rect width="21.875" height="21.875" x="196.875" y="21.875" class="color_1"/><rect width="21.875" height="21.875" x="218.75" y="21.875" class="color_1"/><rect width="21.875" height="21.875" x="240.625" y="21.875" class="color_1"/><rect width="21.875" height="21.875" x="262.5" y="21.875" class="color_0"/><rect width="21.875" height="21.875" x="284.375" y="21.875" class="color_0"/><rect width="21.875" height="21.875" x="306.25" y="21.875" class="color_0"/><rect width="21.875" height="21.875" x="328.125" y="21.875" class="color_0"/><rect width="21.875" height="21.875" x="0" y="43.75" class="color_1"/><rect width="21.875" height="21.875" x="21.875" y="43.75" class="color_1"/><rect width="21.875" height="21.875" x="43.75" y="43.75" class="color_1"/><rect width="21.875" height="21.875" x="65.625" y="43.75" class="color_1"/><rect width="21.875" height="21.875" x="87.5" y="43.75" class="color_0"/><rect width="21.875" height="21.875" x="109.375" y="43.75" class="color_0"/><rect width="21.875" height="21.875" x="131.25" y="43.75" class="color_0"/><rect width="21.875" height="21.875" x="153.125" y="43.75" class="color_0"/><rect width="21.875" height="21.875" x="175" y="43.75" class="color_1"/><rect width="21.875" height="21.875" x="196.875" y="43.75" class="color_1"/><rect width="21.875" height="21.875" x="218.75" y="43.75" class="color_1"/><rect width="21.875" height="21.875" x="240.625" y="43.75" class="color_1"/><rect width="21.875" height="21.875" x="262.5" y="43.75" class="color_0"/><rect width="21.875" height="21.875" x="284.375" y="43.75" class="color_0"/><rect width="21.875" height="21.875" x="306.25" y="43.75" class="color_0"/><rect width="21.875" height="21.875" x="328.125" y="43.75" class="color_0"/><rect width="21.875" height="21.875" x="0" y="65.625" class="color_1"/><rect width="21.875" height="21.875" x="21.875" y="65.625" class="color_1"/><rect width="21.875" height="21.875" x="43.75" y="65.625" class="color_1"/><rect width="21.875" height="21.875" x="65.625" y="65.625" class="color_1"/><rect width="21.875" height="21.875" x="87.5" y="65.625" class="color_0"/><rect width="21.875" height="21.875" x="109.375" y="65.625" class="color_0"/><rect width="21.875" height="21.875" x="131.25" y="65.625" class="color_0"/><rect width="21.875" height="21.875" x="153.125" y="65.625" class="color_0"/><rect width="21.875" height="21.875" x="175" y="65.625" class="color_1"/><rect width="21.875" height="21.875" x="196.875" y="65.625" class="color_1"/><rect width="21.875" height="21.875" x="218.75" y="65.625" class="color_1"/><rect width="21.875" height="21.875" x="240.625" y="65.625" class="color_1"/><rect width="21.875" height="21.875" x="262.5" y="65.625" class="color_0"/><rect width="21.875" height="21.875" x="284.375" y="65.625" class="color_0"/><rect width="21.875" height="21.875" x="306.25" y="65.625" class="color_0"/><rect width="21.875" height="21.875" x="328.125" y="65.625" class="color_0"/><rect width="21.875" height="21.875" x="0" y="87.5" class="color_0"/><rect width="21.875" height="21.875" x="21.875" y="87.5" class="color_0"/><rect width="21.875" height="21.875" x="43.75" y="87.5" class="color_0"/><rect width="21.875" height="21.875" x="65.625" y="87.5" class="color_0"/><rect width="21.875" height="21.875" x="87.5" y="87.5" class="color_1"/><rect width="21.875" height="21.875" x="109.375" y="87.5" class="color_1"/><rect width="21.875" height="21.875" x="131.25" y="87.5" class="color_1"/><rect width="21.875" height="21.875" x="153.125" y="87.5" class="color_1"/><rect width="21.875" height="21.875" x="175" y="87.5" class="color_0"/><rect width="21.875" height="21.875" x="196.875" y="87.5" class="color_0"/><rect width="21.875" height="21.875" x="218.75" y="87.5" class="color_0"/><rect width="21.875" height="21.875" x="240.625" y="87.5" class="color_0"/><rect width="21.875" height="21.875" x="262.5" y="87.5" class="color_1"/><rect width="21.875" height="21.875" x="284.375" y="87.5" class="color_1"/><rect width="21.875" height="21.875" x="306.25" y="87.5" class="color_1"/><rect width="21.875" height="21.875" x="328.125" y="87.5" class="color_1"/><rect width="21.875" height="21.875" x="0" y="109.375" class="color_0"/><rect width="21.875" height="21.875" x="21.875" y="109.375" class="color_0"/><rect width="21.875" height="21.875" x="43.75" y="109.375" class="color_0"/><rect width="21.875" height="21.875" x="65.625" y="109.375" class="color_0"/><rect width="21.875" height="21.875" x="87.5" y="109.375" class="color_1"/><rect width="21.875" height="21.875" x="109.375" y="109.375" class="color_1"/><rect width="21.875" height="21.875" x="131.25" y="109.375" class="color_1"/><rect width="21.875" height="21.875" x="153.125" y="109.375" class="color_1"/><rect width="21.875" height="21.875" x="175" y="109.375" class="color_0"/><rect width="21.875" height="21.875" x="196.875" y="109.375" class="color_0"/><rect width="21.875" height="21.875" x="218.75" y="109.375" class="color_0"/><rect width="21.875" height="21.875" x="240.625" y="109.375" class="color_0"/><rect width="21.875" height="21.875" x="262.5" y="109.375" class="color_1"/><rect width="21.875" height="21.875" x="284.375" y="109.375" class="color_1"/><rect width="21.875" height="21.875" x="306.25" y="109.375" class="color_1"/><rect width="21.875" height="21.875" x="328.125" y="109.375" class="color_1"/><rect width="21.875" height="21.875" x="0" y="131.25" class="color_0"/><rect width="21.875" height="21.875" x="21.875" y="131.25" class="color_0"/><rect width="21.875" height="21.875" x="43.75" y="131.25" class="color_0"/><rect width="21.875" height="21.875" x="65.625" y="131.25" class="color_0"/><rect width="21.875" height="21.875" x="87.5" y="131.25" class="color_1"/><rect width="21.875" height="21.875" x="109.375" y="131.25" class="color_1"/><rect width="21.875" height="21.875" x="131.25" y="131.25" class="color_1"/><rect width="21.875" height="21.875" x="153.125" y="131.25" class="color_1"/><rect width="21.875" height="21.875" x="175" y="131.25" class="color_0"/><rect width="21.875" height="21.875" x="196.875" y="131.25" class="color_0"/><rect width="21.875" height="21.875" x="218.75" y="131.25" class="color_0"/><rect width="21.875" height="21.875" x="240.625" y="131.25" class="color_0"/><rect width="21.875" height="21.875" x="262.5" y="131.25" class="color_1"/><rect width="21.875" height="21.875" x="284.375" y="131.25" class="color_1"/><rect width="21.875" height="21.875" x="306.25" y="131.25" class="color_1"/><rect width="21.875" height="21.875" x="328.125" y="131.25" class="color_1"/><rect width="21.875" height="21.875" x="0" y="153.125" class="color_0"/><rect width="21.875" height="21.875" x="21.875" y="153.125" class="color_0"/><rect width="21.875" height="21.875" x="43.75" y="153.125" class="color_0"/><rect width="21.875" height="21.875" x="65.625" y="153.125" class="color_0"/><rect width="21.875" height="21.875" x="87.5" y="153.125" class="color_1"/><rect width="21.875" height="21.875" x="109.375" y="153.125" class="color_1"/><rect width="21.875" height="21.875" x="131.25" y="153.125" class="color_1"/><rect width="21.875" height="21.875" x="153.125" y="153.125" class="color_1"/><rect width="21.875" height="21.875" x="175" y="153.125" class="color_0"/><rect width="21.875" height="21.875" x="196.875" y="153.125" class="color_0"/><rect width="21.875" height="21.875" x="218.75" y="153.125" class="color_0"/><rect width="21.875" height="21.875" x="240.625" y="153.125" class="color_0"/><rect width="21.875" height="21.875" x="262.5" y="153.125" class="color_1"/><rect width="21.875" height="21.875" x="284.375" y="153.125" class="color_1"/><rect width="21.875" height="21.875" x="306.25" y="153.125" class="color_1"/><rect width="21.875" height="21.875" x="328.125" y="153.125" class="color_1"/><rect width="21.875" height="21.875" x="0" y="175" class="color_1"/><rect width="21.875" height="21.875" x="21.875" y="175" class="color_1"/><rect width="21.875" height="21.875" x="43.75" y="175" class="color_1"/><rect width="21.875" height="21.875" x="65.625" y="175" class="color_1"/><rect width="21.875" height="21.875" x="87.5" y="175" class="color_0"/><rect width="21.875" height="21.875" x="109.375" y="175" class="color_0"/><rect width="21.875" height="21.875" x="131.25" y="175" class="color_0"/><rect width="21.875" height="21.875" x="153.125" y="175" class="color_0"/><rect width="21.875" height="21.875" x="175" y="175" class="color_1"/><rect width="21.875" height="21.875" x="196.875" y="175" class="color_1"/><rect width="21.875" height="21.875" x="218.75" y="175" class="color_1"/><rect width="21.875" height="21.875" x="240.625" y="175" class="color_1"/><rect width="21.875" height="21.875" x="262.5" y="175" class="color_0"/><rect width="21.875" height="21.875" x="284.375" y="175" class="color_0"/><rect width="21.875" height="21.875" x="306.25" y="175" class="color_0"/><rect width="21.875" height="21.875" x="328.125" y="175" class="color_0"/><rect width="21.875" height="21.875" x="0" y="196.875" class="color_1"/><rect width="21.875" height="21.875" x="21.875" y="196.875" class="color_1"/><rect width="21.875" height="21.875" x="43.75" y="196.875" class="color_1"/><rect width="21.875" height="21.875" x="65.625" y="196.875" class="color_1"/><rect width="21.875" height="21.875" x="87.5" y="196.875" class="color_0"/><rect width="21.875" height="21.875" x="109.375" y="196.875" class="color_0"/><rect width="21.875" height="21.875" x="131.25" y="196.875" class="color_0"/><rect width="21.875" height="21.875" x="153.125" y="196.875" class="color_0"/><rect width="21.875" height="21.875" x="175" y="196.875" class="color_1"/><rect width="21.875" height="21.875" x="196.875" y="196.875" class="color_1"/><rect width="21.875" height="21.875" x="218.75" y="196.875" class="color_1"/><rect width="21.875" height="21.875" x="240.625" y="196.875" class="color_1"/><rect width="21.875" height="21.875" x="262.5" y="196.875" class="color_0"/><rect width="21.875" height="21.875" x="284.375" y="196.875" class="color_0"/><rect width="21.875" height="21.875" x="306.25" y="196.875" class="color_0"/><rect width="21.875" height="21.875" x="328.125" y="196.875" class="color_0"/><rect width="21.875" height="21.875" x="0" y="218.75" class="color_1"/><rect width="21.875" height="21.875" x="21.875" y="218.75" class="color_1"/><rect width="21.875" height="21.875" x="43.75" y="218.75" class="color_1"/><rect width="21.875" height="21.875" x="65.625" y="218.75" class="color_1"/><rect width="21.875" height="21.875" x="87.5" y="218.75" class="color_0"/><rect width="21.875" height="21.875" x="109.375" y="218.75" class="color_0"/><rect width="21.875" height="21.875" x="131.25" y="218.75" class="color_0"/><rect width="21.875" height="21.875" x="153.125" y="218.75" class="color_0"/><rect width="21.875" height="21.875" x="175" y="218.75" class="color_1"/><rect width="21.875" height="21.875" x="196.875" y="218.75" class="color_1"/><rect width="21.875" height="21.875" x="218.75" y="218.75" class="color_1"/><rect width="21.875" height="21.875" x="240.625" y="218.75" class="color_1"/><rect width="21.875" height="21.875" x="262.5" y="218.75" class="color_0"/><rect width="21.875" height="21.875" x="284.375" y="218.75" class="color_0"/><rect width="21.875" height="21.875" x="306.25" y="218.75" class="color_0"/><rect width="21.875" height="21.875" x="328.125" y="218.75" class="color_0"/><rect width="21.875" height="21.875" x="0" y="240.625" class="color_1"/><rect width="21.875" height="21.875" x="21.875" y="240.625" class="color_1"/><rect width="21.875" height="21.875" x="43.75" y="240.625" class="color_1"/><rect width="21.875" height="21.875" x="65.625" y="240.625" class="color_1"/><rect width="21.875" height="21.875" x="87.5" y="240.625" class="color_0"/><rect width="21.875" height="21.875" x="109.375" y="240.625" class="color_0"/><rect width="21.875" height="21.875" x="131.25" y="240.625" class="color_0"/><rect width="21.875" height="21.875" x="153.125" y="240.625" class="color_0"/><rect width="21.875" height="21.875" x="175" y="240.625" class="color_1"/><rect width="21.875" height="21.875" x="196.875" y="240.625" class="color_1"/><rect width="21.875" height="21.875" x="218.75" y="240.625" class="color_1"/><rect width="21.875" height="21.875" x="240.625" y="240.625" class="color_1"/><rect width="21.875" height="21.875" x="262.5" y="240.625" class="color_0"/><rect width="21.875" height="21.875" x="284.375" y="240.625" class="color_0"/><rect width="21.875" height="21.875" x="306.25" y="240.625" class="color_0"/><rect width="21.875" height="21.875" x="328.125" y="240.625" class="color_0"/><rect width="21.875" height="21.875" x="0" y="262.5" class="color_0"/><rect width="21.875" height="21.875" x="21.875" y="262.5" class="color_0"/><rect width="21.875" height="21.875" x="43.75" y="262.5" class="color_0"/><rect width="21.875" height="21.875" x="65.625" y="262.5" class="color_0"/><rect width="21.875" height="21.875" x="87.5" y="262.5" class="color_1"/><rect width="21.875" height="21.875" x="109.375" y="262.5" class="color_1"/><rect width="21.875" height="21.875" x="131.25" y="262.5" class="color_1"/><rect width="21.875" height="21.875" x="153.125" y="262.5" class="color_1"/><rect width="21.875" height="21.875" x="175" y="262.5" class="color_0"/><rect width="21.875" height="21.875" x="196.875" y="262.5" class="color_0"/><rect width="21.875" height="21.875" x="218.75" y="262.5" class="color_0"/><rect width="21.875" height="21.875" x="240.625" y="262.5" class="color_0"/><rect width="21.875" height="21.875" x="262.5" y="262.5" class="color_1"/><rect width="21.875" height="21.875" x="284.375" y="262.5" class="color_1"/><rect width="21.875" height="21.875" x="306.25" y="262.5" class="color_1"/><rect width="21.875" height="21.875" x="328.125" y="262.5" class="color_1"/><rect width="21.875" height="21.875" x="0" y="284.375" class="color_0"/><rect width="21.875" height="21.875" x="21.875" y="284.375" class="color_0"/><rect width="21.875" height="21.875" x="43.75" y="284.375" class="color_0"/><rect width="21.875" height="21.875" x="65.625" y="284.375" class="color_0"/><rect width="21.875" height="21.875" x="87.5" y="284.375" class="color_1"/><rect width="21.875" height="21.875" x="109.375" y="284.375" class="color_1"/><rect width="21.875" height="21.875" x="131.25" y="284.375" class="color_1"/><rect width="21.875" height="21.875" x="153.125" y="284.375" class="color_1"/><rect width="21.875" height="21.875" x="175" y="284.375" class="color_0"/><rect width="21.875" height="21.875" x="196.875" y="284.375" class="color_0"/><rect width="21.875" height="21.875" x="218.75" y="284.375" class="color_0"/><rect width="21.875" height="21.875" x="240.625" y="284.375" class="color_0"/><rect width="21.875" height="21.875" x="262.5" y="284.375" class="color_1"/><rect width="21.875" height="21.875" x="284.375" y="284.375" class="color_1"/><rect width="21.875" height="21.875" x="306.25" y="284.375" class="color_1"/><rect width="21.875" height="21.875" x="328.125" y="284.375" class="color_1"/><rect width="21.875" height="21.875" x="0" y="306.25" class="color_0"/><rect width="21.875" height="21.875" x="21.875" y="306.25" class="color_0"/><rect width="21.875" height="21.875" x="43.75" y="306.25" class="color_0"/><rect width="21.875" height="21.875" x="65.625" y="306.25" class="color_0"/><rect width="21.875" height="21.875" x="87.5" y="306.25" class="color_1"/><rect width="21.875" height="21.875" x="109.375" y="306.25" class="color_1"/><rect width="21.875" height="21.875" x="131.25" y="306.25" class="color_1"/><rect width="21.875" height="21.875" x="153.125" y="306.25" class="color_1"/><rect width="21.875" height="21.875" x="175" y="306.25" class="color_0"/><rect width="21.875" height="21.875" x="196.875" y="306.25" class="color_0"/><rect width="21.875" height="21.875" x="218.75" y="306.25" class="color_0"/><rect width="21.875" height="21.875" x="240.625" y="306.25" class="color_0"/><rect width="21.875" height="21.875" x="262.5" y="306.25" class="color_1"/><rect width="21.875" height="21.875" x="284.375" y="306.25" class="color_1"/><rect width="21.875" height="21.875" x="306.25" y="306.25" class="color_1"/><rect width="21.875" height="21.875" x="328.125" y="306.25" class="color_1"/><rect width="21.875" height="21.875" x="0" y="328.125" class="color_0"/><rect width="21.875" height="21.875" x="21.875" y="328.125" class="color_0"/><rect width="21.875" height="21.875" x="43.75" y="328.125" class="color_0"/><rect width="21.875" height="21.875" x="65.625" y="328.125" class="color_0"/><rect width="21.875" height="21.875" x="87.5" y="328.125" class="color_1"/><rect width="21.875" height="21.875" x="109.375" y="328.125" class="color_1"/><rect width="21.875" height="21.875" x="131.25" y="328.125" class="color_1"/><rect width="21.875" height="21.875" x="153.125" y="328.125" class="color_1"/><rect width="21.875" height="21.875" x="175" y="328.125" class="color_0"/><rect width="21.875" height="21.875" x="196.875" y="328.125" class="color_0"/><rect width="21.875" height="21.875" x="218.75" y="328.125" class="color_0"/><rect width="21.875" height="21.875" x="240.625" y="328.125" class="color_0"/><rect width="21.875" height="21.875" x="262.5" y="328.125" class="color_1"/><rect width="21.875" height="21.875" x="284.375" y="328.125" class="color_1"/><rect width="21.875" height="21.875" x="306.25" y="328.125" class="color_1"/><rect width="21.875" height="21.875" x="328.125" y="328.125" class="color_1"/><path d="M 0 21.875 h 350 M 0 43.75 h 350 M 0 65.625 h 350 M 0 87.5 h 350 M 0 109.375 h 350 M 0 131.25 h 350 M 0 153.125 h 350 M 0 175 h 350 M 0 196.875 h 350 M 0 218.75 h 350 M 0 240.625 h 350 M 0 262.5 h 350 M 0 284.375 h 350 M 0 306.25 h 350 M 0 328.125 h 350 M 21.875 0 v 350 M 43.75 0 v 350 M 65.625 0 v 350 M 87.5 0 v 350 M 109.375 0 v 350 M 131.25 0 v 350 M 153.125 0 v 350 M 175 0 v 350 M 196.875 0 v 350 M 218.75 0 v 350 M 240.625 0 v 350 M 262.5 0 v 350 M 284.375 0 v 350 M 306.25 0 v 350 M 328.125 0 v 350" class="grid"/><path d="M 72.1875 312.8125 L 37.1875 277.8125 L 277.8125 37.1875 L 312.8125 72.1875 Z" class="frag_area"/><circle cx="175" cy="175" r="5.469" class="sample_pt"/></svg>