<svg xmlns="http://www.w3.org/2000/svg" xmlns:xlink="http://www.w3.org/1999/xlink" width="525" height="250" version="1.1"><style type="text/css">.grid{stroke:#888;stroke-width:1.5px;fill:none}.sample_pt{fill:#daa520;stroke:none}.frag_area{stroke-opacity:.7;stroke-width:7px;stroke-linejoin:round;stroke:red;fill:none}._high0,._high1{fill:#000;stroke:none}._high1{fill:#fff}.sample_box{stroke:#4b4;stroke-width:4px;fill:none}._low0,._low1{stroke:none}._low1{fill:#fff}._low0{fill:#000}</style><rect width="31.25" height="31.25" x="0" y="0" class="_high0"/><rect width="31.25" height="31.25" x="31.25" y="0" class="_high0"/><rect width="31.25" height="31.25" x="62.5" y="0" class="_high0"/><rect width="31.25" height="31.25" x="93.75" y="0" class="_high0"/><rect width="31.25" height="31.25" x="125" y="0" class="_high1"/><rect width="31.25" height="31.25" x="156.25" y="0" class="_high1"/><rect width="31.25" height="31.25" x="187.5" y="0" class="_high1"/><rect width="31.25" height="31.25" x="218.75" y="0" class="_high1"/><rect width="31.25" height="31.25" x="0" y="31.25" class="_high0"/><rect width="31.25" height="31.25" x="31.25" y="31.25" class="_high0"/><rect width="31.25" height="31.25" x="62.5" y="31.25" class="_high0"/><rect width="31.25" height="31.25" x="93.75" y="31.25" class="_high0"/><rect width="31.25" height="31.25" x="125" y="31.25" class="_high1"/><rect width="31.25" height="31.25" x="156.25" y="31.25" class="_high1"/><rect width="31.25" height="31.25" x="187.5" y="31.25" class="_high1"/><rect width="31.25" height="31.25" x="218.75" y="31.25" class="_high1"/><rect width="31.25" height="31.25" x="0" y="62.5" class="_high0"/><rect width="31.25" height="31.25" x="31.25" y="62.5" class="_high0"/><rect width="31.25" height="31.25" x="62.5" y="62.5" class="_high0"/><rect width="31.25" height="31.25" x="93.75" y="62.5" class="_high0"/><rect width="31.25" height="31.25" x="125" y="62.5" class="_high1"/><rect width="31.25" height="31.25" x="156.25" y="62.5" class="_high1"/><rect width="31.25" height="31.25" x="187.5" y="62.5" class="_high1"/><rect width="31.25" height="31.25" x="218.75" y="62.5" class="_high1"/><rect width="31.25" height="31.25" x="0" y="93.75" class="_high0"/><rect width="31.25" height="31.25" x="31.25" y="93.75" class="_high0"/><rect width="31.25" height="31.25" x="62.5" y="93.75" class="_high0"/><rect width="31.25" height="31.25" x="93.75" y="93.75" class="_high0"/><rect width="31.25" height="31.25" x="125" y="93.75" class="_high1"/><rect width="31.25" height="31.25" x="156.25" y="93.75" class="_high1"/><rect width="31.25" height="31.25" x="187.5" y="93.75" class="_high1"/><rect width="31.25" height="31.25" x="218.75" y="93.75" class="_high1"/><rect width="31.25" height="31.25" x="0" y="125" class="_high1"/><rect width="31.25" height="31.25" x="31.25" y="125" class="_high1"/><rect width="31.25" height="31.25" x="62.5" y="125" class="_high1"/><rect width="31.25" height="31.25" x="93.75" y="125" class="_high1"/><rect width="31.25" height="31.25" x="125" y="125" class="_high0"/><rect width="31.25" height="31.25" x="156.25" y="125" class="_high0"/><rect width="31.25" height="31.25" x="187.5" y="125" class="_high0"/><rect width="31.25" height="31.25" x="218.75" y="125" class="_high0"/><rect width="31.25" height="31.25" x="0" y="156.25" class="_high1"/><rect width="31.25" height="31.25" x="31.25" y="156.25" class="_high1"/><rect width="31.25" height="31.25" x="62.5" y="156.25" class="_high1"/><rect width="31.25" height="31.25" x="93.75" y="156.25" class="_high1"/><rect width="31.25" height="31.25" x="125" y="156.25" class="_high0"/><rect width="31.25" height="31.25" x="156.25" y="156.25" class="_high0"/><rect width="31.25" height="31.25" x="187.5" y="156.25" class="_high0"/><rect width="31.25" height="31.25" x="218.75" y="156.25" class="_high0"/><rect width="31.25" height="31.25" x="0" y="187.5" class="_high1"/><rect width="31.25" height="31.25" x="31.25" y="187.5" class="_high1"/><rect width="31.25" height="31.25" x="62.5" y="187.5" class="_high1"/><rect width="31.25" height="31.25" x="93.75" y="187.5" class="_high1"/><rect width="31.25" height="31.25" x="125" y="187.5" class="_high0"/><rect width="31.25" height="31.25" x="156.25" y="187.5" class="_high0"/><rect width="31.25" height="31.25" x="187.5" y="187.5" class="_high0"/><rect width="31.25" height="31.25" x="218.75" y="187.5" class="_high0"/><rect width="31.25" height="31.25" x="0" y="218.75" class="_high1"/><rect width="31.25" height="31.25" x="31.25" y="218.75" class="_high1"/><rect width="31.25" height="31.25" x="62.5" y="218.75" class="_high1"/><rect width="31.25" height="31.25" x="93.75" y="218.75" class="_high1"/><rect width="31.25" height="31.25" x="125" y="218.75" class="_high0"/><rect width="31.25" height="31.25" x="156.25" y="218.75" class="_high0"/><rect width="31.25" height="31.25" x="187.5" y="218.75" class="_high0"/><rect width="31.25" height="31.25" x="218.75" y="218.75" class="_high0"/><path d="M 0 31.25 h 250 M 0 62.5 h 250 M 0 93.75 h 250 M 0 125 h 250 M 0 156.25 h 250 M 0 187.5 h 250 M 0 218.75 h 250 M 31.25 0 v 250 M 62.5 0 v 250 M 93.75 0 v 250 M 125 0 v 250 M 156.25 0 v 250 M 187.5 0 v 250 M 218.75 0 v 250" class="grid"/><rect width="62.5" height="62.5" x="275" y="0" class="_low0"/><rect width="62.5" height="62.5" x="337.5" y="0" class="_low0"/><rect width="62.5" height="62.5" x="400" y="0" class="_low1"/><rect width="62.5" height="62.5" x="462.5" y="0" class="_low1"/><rect width="62.5" height="62.5" x="275" y="62.5" class="_low0"/><rect width="62.5" height="62.5" x="337.5" y="62.5" class="_low0"/><rect width="62.5" height="62.5" x="400" y="62.5" class="_low1"/><rect width="62.5" height="62.5" x="462.5" y="62.5" class="_low1"/><rect width="62.5" height="62.5" x="275" y="125" class="_low1"/><rect width="62.5" height="62.5" x="337.5" y="125" class="_low1"/><rect width="62.5" height="62.5" x="400" y="125" class="_low0"/><rect width="62.5" height="62.5" x="462.5" y="125" class="_low0"/><rect width="62.5" height="62.5" x="275" y="187.5" class="_low1"/><rect width="62.5" height="62.5" x="337.5" y="187.5" class="_low1"/><rect width="62.5" height="62.5" x="400" y="187.5" class="_low0"/><rect width="62.5" height="62.5" x="462.5" y="187.5" class="_low0"/><path d="M 275 62.5 h 250 M 275 125 h 250 M 275 187.5 h 250 M 337.5 0 v 250 M 400 0 v 250 M 462.5 0 v 250" class="grid"/><rect width="62.5" height="62.5" x="125" y="62.5" class="sample_box"/><rect width="125" height="125" x="337.5" y="62.5" class="sample_box"/><path d="M 352.1875 164.0625 L 352.1875 32.8125 L 483.4375 32.8125 L 483.4375 164.0625 Z" class="frag_area"/><path d="M 77.1875 164.0625 L 77.1875 32.8125 L 208.4375 32.8125 L 208.4375 164.0625 Z" class="frag_area"/><circle cx="142.813" cy="98.438" r="4.688" class="sample_pt"/><circle cx="417.813" cy="98.438" r="4.688" class="sample_pt"/></svg>