<svg xmlns="http://www.w3.org/2000/svg" xmlns:xlink="http://www.w3.org/1999/xlink" width="350" height="350" version="1.1"><style type="text/css">.frag_area{stroke-opacity:.7;stroke-width:7px;stroke-linejoin:round;stroke:red;fill:none}.sample_box{stroke:#4b4;stroke-width:4px;fill:none}.color_0,.color_1{fill:#000;stroke:none}.color_1{fill:#fff}.grid{stroke:#888;stroke-width:1.5px;fill:none}.sample_pt{fill:#daa520;stroke:none}</style><rect width="43.75" height="43.75" x="0" y="0" class="color_1"/><rect width="43.75" height="43.75" x="43.75" y="0" class="color_1"/><rect width="43.75" height="43.75" x="87.5" y="0" class="color_0"/><rect width="43.75" height="43.75" x="131.25" y="0" class="color_0"/><rect width="43.75" height="43.75" x="175" y="0" class="color_1"/><rect width="43.75" height="43.75" x="218.75" y="0" class="color_1"/><rect width="43.75" height="43.75" x="262.5" y="0" class="color_0"/><rect width="43.75" height="43.75" x="306.25" y="0" class="color_0"/><rect width="43.75" height="43.75" x="0" y="43.75" class="color_1"/><rect width="43.75" height="43.75" x="43.75" y="43.75" class="color_1"/><rect width="43.75" height="43.75" x="87.5" y="43.75" class="color_0"/><rect width="43.75" height="43.75" x="131.25" y="43.75" class="color_0"/><rect width="43.75" height="43.75" x="175" y="43.75" class="color_1"/><rect width="43.75" height="43.75" x="218.75" y="43.75" class="color_1"/><rect width="43.75" height="43.75" x="262.5" y="43.75" class="color_0"/><rect width="43.75" height="43.75" x="306.25" y="43.75" class="color_0"/><rect width="43.75" height="43.75" x="0" y="87.5" class="color_0"/><rect width="43.75" height="43.75" x="43.75" y="87.5" class="color_0"/><rect width="43.75" height="43.75" x="87.5" y="87.5" class="color_1"/><rect width="43.75" height="43.75" x="131.25" y="87.5" class="color_1"/><rect width="43.75" height="43.75" x="175" y="87.5" class="color_0"/><rect width="43.75" height="43.75" x="218.75" y="87.5" class="color_0"/><rect width="43.75" height="43.75" x="262.5" y="87.5" class="color_1"/><rect width="43.75" height="43.75" x="306.25" y="87.5" class="color_1"/><rect width="43.75" height="43.75" x="0" y="131.25" class="color_0"/><rect width="43.75" height="43.75" x="43.75" y="131.25" class="color_0"/><rect width="43.75" height="43.75" x="87.5" y="131.25" class="color_1"/><rect width="43.75" height="43.75" x="131.25" y="131.25" class="color_1"/><rect width="43.75" height="43.75" x="175" y="131.25" class="color_0"/><rect width="43.75" height="43.75" x="218.75" y="131.25" class="color_0"/><rect width="43.75" height="43.75" x="262.5" y="131.25" class="color_1"/><rect width="43.75" height="43.75" x="306.25" y="131.25" class="color_1"/><rect width="43.75" height="43.75" x="0" y="175" class="color_1"/><rect width="43.75" height="43.75" x="43.75" y="175" class="color_1"/><rect width="43.75" height="43.75" x="87.5" y="175" class="color_0"/><rect width="43.75" height="43.75" x="131.25" y="175" class="color_0"/><rect width="43.75" height="43.75" x="175" y="175" class="color_1"/><rect width="43.75" height="43.75" x="218.75" y="175" class="color_1"/><rect width="43.75" height="43.75" x="262.5" y="175" class="color_0"/><rect width="43.75" height="43.75" x="306.25" y="175" class="color_0"/><rect width="43.75" height="43.75" x="0" y="218.75" class="color_1"/><rect width="43.75" height="43.75" x="43.75" y="218.75" class="color_1"/><rect width="43.75" height="43.75" x="87.5" y="218.75" class="color_0"/><rect width="43.75" height="43.75" x="131.25" y="218.75" class="color_0"/><rect width="43.75" height="43.75" x="175" y="218.75" class="color_1"/><rect width="43.75" height="43.75" x="218.75" y="218.75" class="color_1"/><rect width="43.75" height="43.75" x="262.5" y="218.75" class="color_0"/><rect width="43.75" height="43.75" x="306.25" y="218.75" class="color_0"/><rect width="43.75" height="43.75" x="0" y="262.5" class="color_0"/><rect width="43.75" height="43.75" x="43.75" y="262.5" class="color_0"/><rect width="43.75" height="43.75" x="87.5" y="262.5" class="color_1"/><rect width="43.75" height="43.75" x="131.25" y="262.5" class="color_1"/><rect width="43.75" height="43.75" x="175" y="262.5" class="color_0"/><rect width="43.75" height="43.75" x="218.75" y="262.5" class="color_0"/><rect width="43.75" height="43.75" x="262.5" y="262.5" class="color_1"/><rect width="43.75" height="43.75" x="306.25" y="262.5" class="color_1"/><rect width="43.75" height="43.75" x="0" y="306.25" class="color_0"/><rect width="43.75" height="43.75" x="43.75" y="306.25" class="color_0"/><rect width="43.75" height="43.75" x="87.5" y="306.25" class="color_1"/><rect width="43.75" height="43.75" x="131.25" y="306.25" class="color_1"/><rect width="43.75" height="43.75" x="175" y="306.25" class="color_0"/><rect width="43.75" height="43.75" x="218.75" y="306.25" class="color_0"/><rect width="43.75" height="43.75" x="262.5" y="306.25" class="color_1"/><rect width="43.75" height="43.75" x="306.25" y="306.25" class="color_1"/><path d="M 0 43.75 h 350 M 0 87.5 h 350 M 0 131.25 h 350 M 0 175 h 350 M 0 218.75 h 350 M 0 262.5 h 350 M 0 306.25 h 350 M 43.75 0 v 350 M 87.5 0 v 350 M 131.25 0 v 350 M 175 0 v 350 M 218.75 0 v 350 M 262.5 0 v 350 M 306.25 0 v 350" class="grid"/><rect width="43.75" height="43.75" x="43.75" y="218.75" class="sample_box"/><rect width="43.75" height="43.75" x="175" y="218.75" class="sample_box"/><rect width="43.75" height="43.75" x="175" y="175" class="sample_box"/><rect width="87.5" height="87.5" x="87.5" y="175" class="sample_box"/><path d="M 52.5 275.625 L 78.75 161.875 L 231.875 157.5 L 188.125 271.25 Z" class="frag_area"/><circle cx="138.25" cy="215.25" r="10.938" class="sample_pt"/></svg>