<svg xmlns="http://www.w3.org/2000/svg" xmlns:xlink="http://www.w3.org/1999/xlink" width="900" height="450" version="1.1"><style type="text/css">.arrow_ended{marker-end:url(#arrow)}.axis_label{font-size:30px;stroke:#000;font-family:monospace}.fill_frustum{fill:#e0e0e0}.fill_black{fill:#000}.image_label{font-size:40px;stroke:#000;text-anchor:middle;font-family:serif}.object_lines{stroke:#00c000;stroke-width:1px;fill:none}.stroke_none{stroke:none}.black{stroke-width:1px;stroke:#000}.object_circles{stroke:#000;stroke-width:.5px;fill:#00c000}.radial_eye{stroke-dasharray:3,3;stroke:#000}</style><defs><marker id="point" markerHeight="10" markerUnits="userSpaceOnUse" markerWidth="10" orient="auto" refX="5" refY="5"><circle cx="5" cy="5" r="5" class="fill_black black"/></marker><marker id="arrow" markerHeight="12" markerUnits="userSpaceOnUse" markerWidth="16" orient="auto" refX="16" refY="6"><path d="M 16 6 L 0 0 L 0 12 Z" class="fill_black black"/></marker></defs><path d="M 100 250 L 300 250 L 400 150 L 400 50 L 0 50 L 0 150 Z" class="stroke_none fill_frustum"/><rect width="200" height="200" x="600" y="100" class="stroke_none fill_frustum"/><line x1="200" x2="400" y1="350" y2="150" class="radial_eye"/><line x1="200" x2="0" y1="350" y2="150" class="radial_eye"/><line x1="200" x2="200" y1="350" y2="0" class="black arrow_ended"/><line x1="200" x2="200" y1="350" y2="400" class="black arrow_ended"/><line x1="200" x2="0" y1="350" y2="350" class="black arrow_ended"/><line x1="200" x2="400" y1="350" y2="350" class="black arrow_ended"/><line x1="208" x2="192" y1="50" y2="50" class="black"/><line x1="212" x2="188" y1="100" y2="100" class="black"/><line x1="208" x2="192" y1="150" y2="150" class="black"/><line x1="212" x2="188" y1="200" y2="200" class="black"/><line x1="208" x2="192" y1="250" y2="250" class="black"/><line x1="212" x2="188" y1="300" y2="300" class="black"/><line x1="208" x2="192" y1="350" y2="350" class="black"/><line x1="50" x2="50" y1="358" y2="342" class="black"/><line x1="100" x2="100" y1="362" y2="338" class="black"/><line x1="150" x2="150" y1="358" y2="342" class="black"/><line x1="200" x2="200" y1="362" y2="338" class="black"/><line x1="250" x2="250" y1="358" y2="342" class="black"/><line x1="300" x2="300" y1="362" y2="338" class="black"/><line x1="350" x2="350" y1="358" y2="342" class="black"/><line x1="700" x2="700" y1="200" y2="400" class="black arrow_ended"/><line x1="700" x2="700" y1="200" y2="0" class="black arrow_ended"/><line x1="700" x2="500" y1="200" y2="200" class="black arrow_ended"/><line x1="700" x2="900" y1="200" y2="200" class="black arrow_ended"/><line x1="708" x2="692" y1="350" y2="350" class="black"/><line x1="712" x2="688" y1="300" y2="300" class="black"/><line x1="708" x2="692" y1="250" y2="250" class="black"/><line x1="712" x2="688" y1="200" y2="200" class="black"/><line x1="708" x2="692" y1="150" y2="150" class="black"/><line x1="712" x2="688" y1="100" y2="100" class="black"/><line x1="708" x2="692" y1="50" y2="50" class="black"/><line x1="550" x2="550" y1="192" y2="208" class="black"/><line x1="600" x2="600" y1="188" y2="212" class="black"/><line x1="650" x2="650" y1="192" y2="208" class="black"/><line x1="700" x2="700" y1="188" y2="212" class="black"/><line x1="750" x2="750" y1="192" y2="208" class="black"/><line x1="800" x2="800" y1="188" y2="212" class="black"/><line x1="850" x2="850" y1="192" y2="208" class="black"/><path d="M 350 225 L 350 275 L 250 275 L 250 225 M 350 175 L 350 225 L 250 225 L 250 175 M 350 125 L 350 175 L 250 175 L 250 125 M 350 75 L 350 125 L 250 125 L 250 75 M 350 25 L 350 75 L 250 75 L 250 25 Z" class="object_lines"/><path d="M 820 240 L 900 400 L 766.66666666667 400 L 740 240 M 785.71428571429 171.42857142857 L 820 240 L 740 240 L 728.57142857143 171.42857142857 M 766.66666666667 133.33333333333 L 785.71428571429 171.42857142857 L 728.57142857143 171.42857142857 L 722.22222222222 133.33333333333 M 754.54545454545 109.09090909091 L 766.66666666667 133.33333333333 L 722.22222222222 133.33333333333 L 718.18181818182 109.09090909091 M 746.15384615385 92.307692307692 L 754.54545454545 109.09090909091 L 718.18181818182 109.09090909091 L 715.38461538462 92.307692307692 Z" class="object_lines"/><circle cx="350" cy="275" r="5" class="object_circles"/><circle cx="900" cy="400" r="5" class="object_circles"/><circle cx="250" cy="275" r="5" class="object_circles"/><circle cx="766.667" cy="400" r="5" class="object_circles"/><circle cx="350" cy="225" r="5" class="object_circles"/><circle cx="820" cy="240" r="5" class="object_circles"/><circle cx="250" cy="225" r="5" class="object_circles"/><circle cx="740" cy="240" r="5" class="object_circles"/><circle cx="350" cy="175" r="5" class="object_circles"/><circle cx="785.714" cy="171.429" r="5" class="object_circles"/><circle cx="250" cy="175" r="5" class="object_circles"/><circle cx="728.571" cy="171.429" r="5" class="object_circles"/><circle cx="350" cy="125" r="5" class="object_circles"/><circle cx="766.667" cy="133.333" r="5" class="object_circles"/><circle cx="250" cy="125" r="5" class="object_circles"/><circle cx="722.222" cy="133.333" r="5" class="object_circles"/><circle cx="350" cy="75" r="5" class="object_circles"/><circle cx="754.545" cy="109.091" r="5" class="object_circles"/><circle cx="250" cy="75" r="5" class="object_circles"/><circle cx="718.182" cy="109.091" r="5" class="object_circles"/><circle cx="350" cy="25" r="5" class="object_circles"/><circle cx="746.154" cy="92.308" r="5" class="object_circles"/><circle cx="250" cy="25" r="5" class="object_circles"/><circle cx="715.385" cy="92.308" r="5" class="object_circles"/><text x="355" y="340" class="axis_label">+X</text><text x="150" y="30" class="axis_label">-Z</text><text x="855" y="190" class="axis_label">+X</text><text x="650" y="30" class="axis_label">+Z</text><text x="200" y="440" class="image_label">Camera Space</text><text x="700" y="440" class="image_label">Norm. Device Coord.</text></svg>