<svg xmlns="http://www.w3.org/2000/svg" xmlns:xlink="http://www.w3.org/1999/xlink" width="300" height="700" version="1.1"><style type="text/css">.x_axis{marker-end:url(#big_arrow_x_axis);stroke:green;stroke-width:3px}.thin{stroke-width:1px}.x_axis_marker{stroke:green;stroke-width:3px;fill:none}.arrow_end{marker-end:url(#arrow)}.y_axis_marker{stroke:red;stroke-width:3px;fill:none}.fill_black{fill:#000}.y_axis{marker-end:url(#big_arrow_y_axis);stroke:red;stroke-width:3px}.black{stroke:#000}</style><defs><marker id="point" markerHeight="10" markerUnits="userSpaceOnUse" markerWidth="10" orient="auto" refX="5" refY="5"><circle cx="5" cy="5" r="5" class="fill_black black"/></marker><marker id="arrow" markerHeight="8" markerUnits="userSpaceOnUse" markerWidth="10" orient="auto" refX="10" refY="4"><path d="M 10 4 L 0 0 L 0 8 Z" class="fill_black thin"/></marker><marker id="big_arrow_y_axis" markerHeight="20" markerUnits="userSpaceOnUse" markerWidth="10" orient="auto" refX="10" refY="10"><path d="M 0 0 L 10 10 L 0 20" class="y_axis_marker"/></marker><marker id="big_arrow_x_axis" markerHeight="20" markerUnits="userSpaceOnUse" markerWidth="10" orient="auto" refX="10" refY="10"><path d="M 0 0 L 10 10 L 0 20" class="x_axis_marker"/></marker></defs><line x1="150" x2="150" y1="150" y2="300" class="black thin arrow_end"/><line x1="150" x2="150" y1="150" y2="0" class="black thin arrow_end"/><line x1="150" x2="300" y1="150" y2="150" class="black thin arrow_end"/><line x1="150" x2="0" y1="150" y2="150" class="black thin arrow_end"/><line x1="150" x2="187.5" y1="150" y2="150" class="x_axis"/><line x1="187.5" x2="225" y1="150" y2="150" class="x_axis"/><circle cx="225" cy="75" r="5" class="fill_black black"/><line x1="225" x2="225" y1="150" y2="112.5" class="y_axis"/><line x1="225" x2="225" y1="112.5" y2="75" class="y_axis"/><line x1="150" x2="111.177" y1="550" y2="694.889" class="black thin arrow_end"/><line x1="150" x2="188.823" y1="550" y2="405.111" class="black thin arrow_end"/><line x1="150" x2="294.889" y1="550" y2="511.177" class="black thin arrow_end"/><line x1="150" x2="5.111" y1="550" y2="588.823" class="black thin arrow_end"/><line x1="150" x2="186.222" y1="550" y2="540.294" class="x_axis"/><line x1="186.222" x2="222.444" y1="540.294" y2="530.589" class="x_axis"/><circle cx="241.856" cy="458.144" r="5" class="fill_black black"/><line x1="222.444" x2="232.15" y1="530.589" y2="494.366" class="y_axis"/><line x1="232.15" x2="241.856" y1="494.366" y2="458.144" class="y_axis"/></svg>