<svg xmlns="http://www.w3.org/2000/svg" xmlns:xlink="http://www.w3.org/1999/xlink" width="500" height="500" version="1.1"><style type="text/css">.fill_none{fill:none}.object_projected{stroke-width:8px;stroke:#00c000}.line_of_proj{stroke:red;stroke-dasharray:4,8;stroke-width:1px}.background{stroke:none;fill:#e0e0e0}.dashed{stroke-dasharray:4,8}.fill_black{fill:#000}.line_standard,.object{stroke-width:1px}.object{stroke:#00c000}.black{stroke:#000}</style><polygon points="187.5 375 312.5 375 687.5 0 -187.5 0" class="background"/><line x1="266.667" x2="256.944" y1="375" y2="375" class="object_projected"/><line x1="266.667" x2="300" y1="375" y2="250" class="line_of_proj"/><line x1="260.417" x2="281.25" y1="375" y2="250" class="line_of_proj"/><line x1="256.944" x2="281.25" y1="375" y2="156.25" class="line_of_proj"/><line x1="261.111" x2="300" y1="375" y2="156.25" class="line_of_proj"/><line x1="43.75" x2="112.5" y1="343.75" y2="375" class="line_of_proj"/><line x1="218.75" x2="244.792" y1="62.5" y2="375" class="line_of_proj"/><line x1="112.5" x2="244.792" y1="375" y2="375" class="object_projected"/><polygon points="300 250 281.25 250 281.25 156.25 300 156.25" class="object fill_none"/><line x1="43.75" x2="218.75" y1="343.75" y2="62.5" class="object"/><line x1="187.5" x2="312.5" y1="375" y2="375" class="black line_standard"/><line x1="187.5" x2="0" y1="375" y2="375" class="black line_standard dashed"/><line x1="312.5" x2="500" y1="375" y2="375" class="black line_standard dashed"/><circle cx="250" cy="437.5" r="5" class="black fill_black"/><line x1="187.5" x2="250" y1="375" y2="437.5" class="black line_standard dashed"/><line x1="312.5" x2="250" y1="375" y2="437.5" class="black line_standard dashed"/></svg>