<svg xmlns="http://www.w3.org/2000/svg" xmlns:xlink="http://www.w3.org/1999/xlink" width="500" height="500" version="1.1" viewbox="0 0 500 500"><style type="text/css">.fill_transluscent{fill-opacity:.1;fill:#00f}.dashed{stroke-dasharray:3,3}.black{stroke-width:1px;stroke:#000}.arrowended{marker-end:url(#arrowhead)}</style><defs><marker id="arrowhead" markerHeight="8" markerUnits="strokeWidth" markerWidth="10" orient="auto" refX="10" refY="4"><path d="M 10 4 L 0 0 L 0 8 Z" class="black"/></marker></defs><line x1="171.6" x2="73.223" y1="223.185" y2="189.539" class="black arrowended"/><line x1="250" x2="250" y1="191.269" y2="15.077" class="black arrowended"/><line x1="338.388" x2="426.777" y1="219.769" y2="189.539" class="black arrowended"/><polygon points="212.877 270.811 212.877 82.873 130.322 246.037 130.322 293.021" class="black fill_transluscent"/><polygon points="463.9 356.666 212.877 270.811 130.322 293.021 192.901 314.425" class="black fill_transluscent"/><polygon points="463.9 356.666 212.877 270.811 212.877 82.873 463.9 168.728" class="black fill_transluscent"/><line x1="328.4" x2="171.6" y1="276.815" y2="223.185" class="black dashed"/><line x1="250" x2="250" y1="308.731" y2="191.269" class="black dashed"/><line x1="338.388" x2="161.612" y1="219.769" y2="280.231" class="black dashed"/><polygon points="463.9 356.666 463.9 168.728 192.901 267.44 192.901 314.425" class="black fill_transluscent"/><polygon points="463.9 168.728 212.877 82.873 130.322 246.037 192.901 267.44" class="black fill_transluscent"/><polygon points="192.901 314.425 130.322 293.021 130.322 246.037 192.901 267.44" class="black fill_transluscent"/><line x1="328.4" x2="426.777" y1="276.815" y2="310.461" class="black arrowended"/><line x1="250" x2="250" y1="308.731" y2="484.923" class="black arrowended"/><line x1="161.612" x2="73.223" y1="280.231" y2="310.461" class="black arrowended"/></svg>