<svg xmlns="http://www.w3.org/2000/svg" xmlns:xlink="http://www.w3.org/1999/xlink" width="700" height="300" version="1.1"><style type="text/css">.grid{stroke:#ccc;stroke-width:1px;fill:none}.x_axis_marker,.y_axis{stroke-width:2px;fill:none}.y_axis{marker-end:url(#big_arrow_y_axis);stroke:red}.x_axis_marker{stroke:green}.point{fill:#afafff;stroke:#afafff}.y_axis_marker{stroke:red}.axes,.triangle,.x_axis,.y_axis_marker{stroke-width:2px;fill:none}.triangle{marker:url(#m_point);stroke:#afafff}.axes{marker-end:url(#arrow);stroke:#000}.x_axis{marker-end:url(#big_arrow_x_axis);stroke:green}</style><defs><marker id="m_point" markerHeight="10" markerUnits="userSpaceOnUse" markerWidth="10" orient="auto" refX="5" refY="5"><circle cx="5" cy="5" r="5" class="point"/></marker><marker id="arrow" markerHeight="8" markerUnits="userSpaceOnUse" markerWidth="10" orient="auto" refX="10" refY="4"><path d="M 10 4 L 0 0 L 0 8 Z" class="fill_black thin"/></marker><marker id="big_arrow_y_axis" markerHeight="20" markerUnits="userSpaceOnUse" markerWidth="10" orient="auto" refX="10" refY="10"><path d="M 0 0 L 10 10 L 0 20" class="y_axis_marker"/></marker><marker id="big_arrow_x_axis" markerHeight="20" markerUnits="userSpaceOnUse" markerWidth="10" orient="auto" refX="10" refY="10"><path d="M 0 0 L 10 10 L 0 20" class="x_axis_marker"/></marker><g id="g_axes"><path d="M 0 300 V 0 M 37.5 300 V 0 M 75 300 V 0 M 112.5 300 V 0 M 150 300 V 0 M 187.5 300 V 0 M 225 300 V 0 M 262.5 300 V 0 M 300 300 V 0 M 0 300 H 300 M 0 262.5 H 300 M 0 225 H 300 M 0 187.5 H 300 M 0 150 H 300 M 0 112.5 H 300 M 0 75 H 300 M 0 37.5 H 300 M 0 0 H 300" class="grid"/><line x1="150" x2="150" y1="150" y2="300" class="axes"/><line x1="150" x2="150" y1="150" y2="0" class="axes"/><line x1="150" x2="300" y1="150" y2="150" class="axes"/><line x1="150" x2="0" y1="150" y2="150" class="axes"/></g></defs><use width="300" height="300" x="0" y="0" xlink:href="#g_axes"/><line x1="150" x2="187.5" y1="150" y2="150" class="x_axis"/><line x1="150" x2="150" y1="150" y2="112.5" class="y_axis"/><polygon points="168.75 56.25 225 187.5 37.5 168.75" class="triangle"/><use width="300" height="300" x="400" y="0" xlink:href="#g_axes"/><line x1="550" x2="568.75" y1="150" y2="150" class="x_axis"/><line x1="550" x2="550" y1="150" y2="105" class="y_axis"/><polygon points="559.375 37.5 587.5 195 493.75 172.5" class="triangle"/></svg>