<svg xmlns="http://www.w3.org/2000/svg" xmlns:xlink="http://www.w3.org/1999/xlink" width="700" height="300" version="1.1"><style type="text/css">.ccw_wind_order{marker-end:url(#m_ccw_arrow);stroke-width:1px;stroke:red;marker-mid:url(#m_ccw_arrow);fill:none}.ccw_arrow,.cw_wind_order{stroke:none;stroke-width:1px;fill:red}.cw_wind_order{marker-end:url(#m_cw_arrow);stroke:#00f;marker-mid:url(#m_cw_arrow);fill:none}.cw_arrow{stroke:none;stroke-width:1px;fill:#00f}.main_triangle,.text{stroke:#000;stroke-width:1px}.text{font-family:monospace;text-anchor:middle;font-size:20px}.main_triangle{fill:none}</style><defs><g id="g_point"><circle cx="0" cy="0" r="4.5" class="point"/></g><marker id="m_cw_arrow" markerHeight="8" markerUnits="userSpaceOnUse" markerWidth="10" orient="auto" refX="0" refY="4"><path d="M 10 4 L 0 0 L 0 8 Z" class="cw_arrow"/></marker><marker id="m_ccw_arrow" markerHeight="8" markerUnits="userSpaceOnUse" markerWidth="10" orient="auto" refX="0" refY="4"><path d="M 10 4 L 0 0 L 0 8 Z" class="ccw_arrow"/></marker><g id="g_cwCircle"><path d="M 32.811537485883 -18.944305707785 A 37.888611415569 37.888611415569 0 0 1 0 37.888611415569 A 37.888611415569 37.888611415569 0 0 1 -32.811537485883 -18.944305707785 A 37.888611415569 37.888611415569 0 0 1 32.811537485883 -18.944305707785" class="cw_wind_order"/></g><g id="g_ccwCircle"><path d="M 32.811537485883 18.944305707785 A 37.888611415569 37.888611415569 0 0 0 0 -37.888611415569 A 37.888611415569 37.888611415569 0 0 0 -32.811537485883 18.944305707785 A 37.888611415569 37.888611415569 0 0 0 32.811537485883 18.944305707785" class="ccw_wind_order"/></g></defs><use x="70" y="225.777" xlink:href="#g_point"/><use x="157.5" y="74.223" xlink:href="#g_point"/><use x="245" y="225.777" xlink:href="#g_point"/><use x="332.5" y="74.223" xlink:href="#g_point"/><use x="420" y="225.777" xlink:href="#g_point"/><use x="507.5" y="74.223" xlink:href="#g_point"/><use x="595" y="225.777" xlink:href="#g_point"/><use x="682.5" y="74.223" xlink:href="#g_point"/><polygon points="70 225.777 157.5 74.223 245 225.777" class="main_triangle"/><polygon points="157.5 74.223 245 225.777 332.5 74.223" class="main_triangle"/><polygon points="245 225.777 332.5 74.223 420 225.777" class="main_triangle"/><polygon points="332.5 74.223 420 225.777 507.5 74.223" class="main_triangle"/><polygon points="420 225.777 507.5 74.223 595 225.777" class="main_triangle"/><polygon points="507.5 74.223 595 225.777 682.5 74.223" class="main_triangle"/><use x="157.5" y="175.259" xlink:href="#g_cwCircle"/><use x="245" y="124.741" xlink:href="#g_ccwCircle"/><use x="332.5" y="175.259" xlink:href="#g_cwCircle"/><use x="420" y="124.741" xlink:href="#g_ccwCircle"/><use x="507.5" y="175.259" xlink:href="#g_cwCircle"/><use x="595" y="124.741" xlink:href="#g_ccwCircle"/><text x="70" y="250.777" class="text">0</text><text x="157.5" y="61.223" class="text">1</text><text x="245" y="250.777" class="text">2</text><text x="332.5" y="61.223" class="text">3</text><text x="420" y="250.777" class="text">4</text><text x="507.5" y="61.223" class="text">5</text><text x="595" y="250.777" class="text">6</text><text x="682.5" y="61.223" class="text">7</text></svg>