<svg xmlns="http://www.w3.org/2000/svg" xmlns:xlink="http://www.w3.org/1999/xlink" width="850" height="550" version="1.1"><style type="text/css">.axes,.triangle{stroke-width:2px;fill:none}.triangle{marker:url(#m_point);stroke:#afafff}.axes{marker-end:url(#arrow);stroke:#000}.x_axis_marker,.y_axis_marker{stroke:#20ff20;stroke-width:2px;fill:none}.y_axis_marker{stroke:red}.point{fill:#afafff;stroke:#afafff}.grid,.text{stroke-width:1px}.text{font-size:30px;stroke:#000;font-family:monospace}.grid{stroke:#ccc;fill:none}.x_axis,.y_axis{stroke:#20ff20;stroke-width:2px;fill:none}.y_axis{stroke:red}</style><defs><marker id="m_point" markerHeight="10" markerUnits="userSpaceOnUse" markerWidth="10" orient="auto" refX="5" refY="5"><circle cx="5" cy="5" r="5" class="point"/></marker><marker id="arrow" markerHeight="8" markerUnits="userSpaceOnUse" markerWidth="10" orient="auto" refX="10" refY="4"><path d="M 10 4 L 0 0 L 0 8 Z" class="fill_black thin"/></marker><marker id="big_arrow_y_axis" markerHeight="20" markerUnits="userSpaceOnUse" markerWidth="10" orient="auto" refX="10" refY="10"><path d="M 0 0 L 10 10 L 0 20" class="y_axis_marker"/></marker><marker id="big_arrow_x_axis" markerHeight="20" markerUnits="userSpaceOnUse" markerWidth="10" orient="auto" refX="10" refY="10"><path d="M 0 0 L 10 10 L 0 20" class="x_axis_marker"/></marker><g id="g_axes"><path d="M 0 250 V 0 M 17.857142857143 250 V 0 M 35.714285714286 250 V 0 M 53.571428571429 250 V 0 M 71.428571428571 250 V 0 M 89.285714285714 250 V 0 M 107.14285714286 250 V 0 M 125 250 V 0 M 142.85714285714 250 V 0 M 160.71428571429 250 V 0 M 178.57142857143 250 V 0 M 196.42857142857 250 V 0 M 214.28571428571 250 V 0 M 232.14285714286 250 V 0 M 250 250 V 0 M 0 250 H 250 M 0 232.14285714286 H 250 M 0 214.28571428571 H 250 M 0 196.42857142857 H 250 M 0 178.57142857143 H 250 M 0 160.71428571429 H 250 M 0 142.85714285714 H 250 M 0 125 H 250 M 0 107.14285714286 H 250 M 0 89.285714285714 H 250 M 0 71.428571428571 H 250 M 0 53.571428571429 H 250 M 0 35.714285714286 H 250 M 0 17.857142857143 H 250 M 0 0 H 250" class="grid"/><line x1="125" x2="125" y1="125" y2="250" class="axes"/><line x1="125" x2="125" y1="125" y2="0" class="axes"/><line x1="125" x2="250" y1="125" y2="125" class="axes"/><line x1="125" x2="0" y1="125" y2="125" class="axes"/></g></defs><use width="250" height="250" x="0" y="0" xlink:href="#g_axes"/><line x1="125" x2="142.857" y1="125" y2="125" class="x_axis"/><line x1="125" x2="125" y1="125" y2="107.143" class="y_axis"/><polygon points="133.929 62.5 142.857 160.714 89.286 187.5" class="triangle"/><use width="250" height="250" x="300" y="0" xlink:href="#g_axes"/><line x1="460.714" x2="478.571" y1="107.143" y2="107.143" class="x_axis"/><line x1="460.714" x2="460.714" y1="107.143" y2="89.286" class="y_axis"/><polygon points="469.643 44.643 478.571 142.857 425 169.643" class="triangle"/><use width="250" height="250" x="600" y="0" xlink:href="#g_axes"/><line x1="796.429" x2="832.143" y1="116.071" y2="116.071" class="x_axis"/><line x1="796.429" x2="796.429" y1="116.071" y2="107.143" class="y_axis"/><polygon points="814.286 84.821 832.143 133.929 725 147.321" class="triangle"/><use width="250" height="250" x="0" y="300" xlink:href="#g_axes"/><line x1="125" x2="142.857" y1="425" y2="425" class="x_axis"/><line x1="125" x2="125" y1="425" y2="407.143" class="y_axis"/><polygon points="133.929 362.5 142.857 460.714 89.286 487.5" class="triangle"/><use width="250" height="250" x="300" y="300" xlink:href="#g_axes"/><line x1="425" x2="460.714" y1="425" y2="425" class="x_axis"/><line x1="425" x2="425" y1="425" y2="416.071" class="y_axis"/><polygon points="442.857 393.75 460.714 442.857 353.571 456.25" class="triangle"/><use width="250" height="250" x="600" y="300" xlink:href="#g_axes"/><line x1="760.714" x2="796.429" y1="407.143" y2="407.143" class="x_axis"/><line x1="760.714" x2="760.714" y1="407.143" y2="398.214" class="y_axis"/><polygon points="778.571 375.893 796.429 425 689.286 438.393" class="triangle"/><text x="265" y="135" class="text">T</text><text x="565" y="135" class="text">S</text><text x="265" y="435" class="text">S</text><text x="565" y="435" class="text">T</text></svg>