<svg xmlns="http://www.w3.org/2000/svg" xmlns:xlink="http://www.w3.org/1999/xlink" width="350" height="350" version="1.1"><style type="text/css">.main_triangle{stroke:#000;stroke-width:1px;fill:none}.stream_edge{stroke-opacity:.5;stroke-width:4px;stroke-linejoin:round;stroke:red;stroke-linecap:round;fill:none}.text{font-family:monospace;stroke-width:1px;stroke:#000;text-anchor:middle;font-size:20px}</style><defs><g id="g_point"><circle cx="0" cy="0" r="4.5" class="point"/></g></defs><use x="262.5" y="35" xlink:href="#g_point"/><use x="313.676" y="256.669" xlink:href="#g_point"/><use x="230.509" y="295.543" xlink:href="#g_point"/><use x="179.038" y="168.568" xlink:href="#g_point"/><use x="69.437" y="185.837" xlink:href="#g_point"/><use x="57.882" y="82.24" xlink:href="#g_point"/><polygon points="262.5 35 313.676 256.669 230.509 295.543" class="main_triangle"/><polygon points="262.5 35 230.509 295.543 179.038 168.568" class="main_triangle"/><polygon points="262.5 35 179.038 168.568 69.437 185.837" class="main_triangle"/><polygon points="262.5 35 69.437 185.837 57.882 82.24" class="main_triangle"/><polyline points="262.5 35 313.676 256.669 230.509 295.543 179.038 168.568 69.437 185.837 57.882 82.24" class="stream_edge"/><text x="270.5" y="27" class="text">0</text><text x="319.3" y="281.028" class="text">1</text><text x="227.463" y="320.357" class="text">2</text><text x="165.79" y="189.769" class="text">3</text><text x="49.737" y="201.229" class="text">4</text><text x="33.523" y="87.863" class="text">5</text></svg>