<svg xmlns="http://www.w3.org/2000/svg" xmlns:xlink="http://www.w3.org/1999/xlink" width="700" height="300" version="1.1"><style type="text/css">.stream_edge{stroke-opacity:.5;stroke-width:4px;stroke-linejoin:round;stroke:red;stroke-linecap:round;fill:none}.main_triangle,.text{stroke:#000;stroke-width:1px}.text{font-family:monospace;text-anchor:middle;font-size:20px}.main_triangle{fill:none}</style><defs><g id="g_point"><circle cx="0" cy="0" r="4.5" class="point"/></g></defs><use x="70" y="225.777" xlink:href="#g_point"/><use x="157.5" y="74.223" xlink:href="#g_point"/><use x="245" y="225.777" xlink:href="#g_point"/><use x="332.5" y="74.223" xlink:href="#g_point"/><use x="420" y="225.777" xlink:href="#g_point"/><use x="507.5" y="74.223" xlink:href="#g_point"/><use x="595" y="225.777" xlink:href="#g_point"/><use x="682.5" y="74.223" xlink:href="#g_point"/><polygon points="70 225.777 157.5 74.223 245 225.777" class="main_triangle"/><polygon points="157.5 74.223 245 225.777 332.5 74.223" class="main_triangle"/><polygon points="245 225.777 332.5 74.223 420 225.777" class="main_triangle"/><polygon points="332.5 74.223 420 225.777 507.5 74.223" class="main_triangle"/><polygon points="420 225.777 507.5 74.223 595 225.777" class="main_triangle"/><polygon points="507.5 74.223 595 225.777 682.5 74.223" class="main_triangle"/><polyline points="70 225.777 157.5 74.223 245 225.777 332.5 74.223 420 225.777 507.5 74.223 595 225.777 682.5 74.223" class="stream_edge"/><text x="70" y="250.777" class="text">0</text><text x="157.5" y="61.223" class="text">1</text><text x="245" y="250.777" class="text">2</text><text x="332.5" y="61.223" class="text">3</text><text x="420" y="250.777" class="text">4</text><text x="507.5" y="61.223" class="text">5</text><text x="595" y="250.777" class="text">6</text><text x="682.5" y="61.223" class="text">7</text></svg>