<svg xmlns="http://www.w3.org/2000/svg" xmlns:xlink="http://www.w3.org/1999/xlink" width="551" height="551" version="1.1"><style type="text/css">.new_point{fill:red;stroke:none}.border,.clip_line{fill:none;stroke:#000}.clip_line{stroke-width:2px}.clip_region{fill:#e0e0ff;stroke:none}.new_edge{stroke-opacity:.4;stroke-width:4px;stroke-linejoin:round;stroke:red;stroke-linecap:round;fill:none}.main_triangle{stroke:#000;stroke-width:1px;fill:none}</style><defs><marker id="m_point" markerHeight="9" markerUnits="userSpaceOnUse" markerWidth="9" orient="auto" refX="4.5" refY="4.5"><circle cx="4.5" cy="4.5" r="4.5" class="point"/></marker><marker id="arrow" markerHeight="8" markerUnits="userSpaceOnUse" markerWidth="10" orient="auto" refX="10" refY="4"><path d="M 10 4 L 0 0 L 0 8 Z" class="fill_black thin"/></marker><marker id="big_arrow_y_axis" markerHeight="20" markerUnits="userSpaceOnUse" markerWidth="10" orient="auto" refX="10" refY="10"><path d="M 0 0 L 10 10 L 0 20" class="y_axis_marker"/></marker><marker id="big_arrow_x_axis" markerHeight="20" markerUnits="userSpaceOnUse" markerWidth="10" orient="auto" refX="10" refY="10"><path d="M 0 0 L 10 10 L 0 20" class="x_axis_marker"/></marker><g id="g_background"><path d="M 62.5 0 L 62.5 156.25 L 250 156.25 L 250 0 Z" class="clip_region"/><path d="M 250 0 L 250 250 L 0 250 L 0 0 Z" class="border"/><path d="M 62.5 0 L 62.5 156.25 L 250 156.25" class="clip_line"/></g><g id="g_new_point"><circle cx="0" cy="0" r="4.5" class="new_point"/></g></defs><use width="250" height="250" x="0" y="0" xlink:href="#g_background"/><polygon points="125 125 175 25 218.75 137.5" class="main_triangle"/><use width="250" height="250" x="300" y="0" xlink:href="#g_background"/><polygon points="456.25 93.75 393.75 218.75 487.5 187.5" class="main_triangle"/><use x="425" y="156.25" xlink:href="#g_new_point"/><use x="477.082" y="156.25" xlink:href="#g_new_point"/><polyline points="456.25 93.75 477.082 156.25 425 156.25 456.25 93.75" class="new_edge"/><use width="250" height="250" x="0" y="300" xlink:href="#g_background"/><polygon points="93.75 425 156.25 518.75 218.75 362.5" class="main_triangle"/><use x="114.584" y="456.25" xlink:href="#g_new_point"/><use x="181.25" y="456.25" xlink:href="#g_new_point"/><polyline points="114.584 456.25 181.25 456.25 218.75 362.5 114.584 456.25 93.75 425 218.75 362.5" class="new_edge"/><use width="250" height="250" x="300" y="300" xlink:href="#g_background"/><polygon points="331.25 362.5 518.75 518.75 487.5 331.25" class="main_triangle"/><use x="362.5" y="388.542" xlink:href="#g_new_point"/><use x="362.5" y="356.25" xlink:href="#g_new_point"/><use x="443.75" y="456.25" xlink:href="#g_new_point"/><use x="508.337" y="456.25" xlink:href="#g_new_point"/><polyline points="362.5 388.542 362.5 356.25 487.5 331.25 362.5 388.542 443.75 456.25 487.5 331.25 508.337 456.25 443.75 456.25" class="new_edge"/></svg>