<svg xmlns="http://www.w3.org/2000/svg" xmlns:xlink="http://www.w3.org/1999/xlink" width="500" height="500" version="1.1" viewbox="0 0 500 500"><style type="text/css">.dashed{stroke-dasharray:3,3}.black{stroke-width:1px;stroke:#000}.fill_transluscent{fill-opacity:.1;fill:#00f}.arrowended{marker-end:url(#arrowhead)}</style><defs><marker id="arrowhead" markerHeight="8" markerUnits="strokeWidth" markerWidth="10" orient="auto" refX="10" refY="4"><path d="M 10 4 L 0 0 L 0 8 Z" class="black"/></marker></defs><line x1="205.806" x2="73.223" y1="234.885" y2="189.539" class="black arrowended"/><line x1="250" x2="250" y1="191.269" y2="15.077" class="black arrowended"/><line x1="338.388" x2="426.777" y1="219.769" y2="189.539" class="black arrowended"/><polygon points="267.678 289.554 267.678 101.616 143.934 250.692 143.934 297.677" class="black fill_transluscent"/><polygon points="409.099 337.923 267.678 289.554 143.934 297.677 179.289 309.769" class="black fill_transluscent"/><polygon points="409.099 337.923 267.678 289.554 267.678 101.616 409.099 149.985" class="black fill_transluscent"/><line x1="294.194" x2="205.806" y1="265.115" y2="234.885" class="black dashed"/><line x1="250" x2="250" y1="308.731" y2="191.269" class="black dashed"/><line x1="338.388" x2="161.612" y1="219.769" y2="280.231" class="black dashed"/><polygon points="409.099 337.923 409.099 149.985 179.289 262.784 179.289 309.769" class="black fill_transluscent"/><polygon points="409.099 149.985 267.678 101.616 143.934 250.692 179.289 262.784" class="black fill_transluscent"/><polygon points="179.289 309.769 143.934 297.677 143.934 250.692 179.289 262.784" class="black fill_transluscent"/><line x1="294.194" x2="426.777" y1="265.115" y2="310.461" class="black arrowended"/><line x1="250" x2="250" y1="308.731" y2="484.923" class="black arrowended"/><line x1="161.612" x2="73.223" y1="280.231" y2="310.461" class="black arrowended"/></svg>