<svg xmlns="http://www.w3.org/2000/svg" xmlns:xlink="http://www.w3.org/1999/xlink" width="700" height="300" version="1.1"><style type="text/css">.arrows{marker-end:url(#arrow);marker-mid:url(#arrow)}.fill_black{fill:#000}.fill_none{fill:none}.text{font-size:30px;font-family:monospace}.black{stroke-width:1px;stroke:#000}.pointed{marker:url(#point)}</style><defs><marker id="point" markerHeight="10" markerUnits="userSpaceOnUse" markerWidth="10" orient="auto" refX="5" refY="5"><circle cx="5" cy="5" r="5" class="fill_black black"/></marker><marker id="arrow" markerHeight="8" markerUnits="userSpaceOnUse" markerWidth="10" orient="auto" refX="0" refY="4"><path d="M 10 4 L 0 0 L 0 8 Z" class="fill_black black"/></marker><g id="g_triangle"><polygon points="90 60 240 180 30 240"/></g><g id="g_cwCircle"><path d="M 152.475 141.25 A 37.5 37.5 0 0 1 120 197.5 A 37.5 37.5 0 0 1 87.525 141.25 A 37.5 37.5 0 0 1 152.475 141.25" class="arrows"/></g><g id="g_ccwCircle"><path d="M 152.475 178.75 A 37.5 37.5 0 0 0 120 122.5 A 37.5 37.5 0 0 0 87.525 178.75 A 37.5 37.5 0 0 0 152.475 178.75" class="arrows"/></g><g id="g_cwLabels"><text x="83" y="48">1</text><text x="249" y="187">2</text><text x="5" y="265">3</text></g><g id="g_ccwLabels"><text x="83" y="48">1</text><text x="5" y="265">2</text><text x="249" y="187">3</text></g></defs><use width="300" height="300" x="0" y="0" class="black fill_none pointed" xlink:href="#g_triangle"/><use width="300" height="300" x="400" y="0" class="black fill_none pointed" xlink:href="#g_triangle"/><use width="300" height="300" x="0" y="0" class="black text" xlink:href="#g_cwLabels"/><use width="300" height="300" x="0" y="0" class="black fill_none" xlink:href="#g_cwCircle"/><use width="300" height="300" x="400" y="0" class="black text" xlink:href="#g_ccwLabels"/><use width="300" height="300" x="400" y="0" class="black fill_none" xlink:href="#g_ccwCircle"/></svg>