<svg xmlns="http://www.w3.org/2000/svg" xmlns:xlink="http://www.w3.org/1999/xlink" width="350" height="250" version="1.1"><style type="text/css">.__axis1{stroke:#000;stroke-width:1px;fill:none}.vector{marker-end:url(#arrow);stroke:#006400;stroke-width:2px}.__axis_arrow_end1{marker-end:url(#__axis_arrow1)}.text-hyp{font-weight:700;font-size:25px;stroke:none;font-family:monospace;fill:#ff8c00}.arrowhead{stroke:#006400;fill:#006400}.circle{stroke:#000;fill:none}.text{font-weight:700;font-size:25px;stroke:none;font-family:monospace;fill:#006400}.arrowhead-hyp{stroke:#ff8c00;fill:#ff8c00}.vector-hyp{marker-end:url(#arrow-hyp);stroke:#ff8c00;stroke-width:2px}</style><defs><marker id="__axis_arrow1" markerHeight="8" markerUnits="userSpaceOnUse" markerWidth="10" orient="auto" refX="10" refY="4"><path d="M 10 4 L 0 0 L 0 8 Z" class="fill_black thin"/></marker><g id="g_axes"><line x1="175" x2="175" y1="183.333" y2="250" class="__axis1 __axis_arrow_end1"/><line x1="175" x2="175" y1="183.333" y2="0" class="__axis1 __axis_arrow_end1"/><line x1="175" x2="350" y1="183.333" y2="183.333" class="__axis1 __axis_arrow_end1"/><line x1="175" x2="0" y1="183.333" y2="183.333" class="__axis1 __axis_arrow_end1"/></g></defs><defs><marker id="arrow" markerHeight="8" markerUnits="userSpaceOnUse" markerWidth="10" orient="auto" refX="10" refY="4"><path d="M 10 4 L 0 0 L 0 8 Z" class="arrowhead"/></marker><marker id="arrow-hyp" markerHeight="8" markerUnits="userSpaceOnUse" markerWidth="10" orient="auto" refX="10" refY="4"><path d="M 10 4 L 0 0 L 0 8 Z" class="arrowhead-hyp"/></marker></defs><use width="350" height="250" x="0" y="0" xlink:href="#g_axes"/><path d="M 320.83333333333 183.33333333333 A 145.83333333333 145.83333333333 0 1 0 29.166666666667 183.33333333333" class="circle"/><line x1="175" x2="292.982" y1="183.333" y2="183.333" class="vector"/><text x="233.991" y="205.333" class="text">X</text><line x1="292.982" x2="292.982" y1="183.333" y2="97.615" class="vector-hyp"/><text x="297.982" y="150.474" class="text-hyp">Y</text><line x1="175" x2="292.982" y1="183.333" y2="97.615" class="vector"/><text x="228.991" y="125.474" class="text">R</text></svg>