<svg xmlns="http://www.w3.org/2000/svg" xmlns:xlink="http://www.w3.org/1999/xlink" width="851" height="251" version="1.1"><style type="text/css">.normal{marker-end:url(#arrow_normal)}.normal,.normal_head{stroke:red;stroke-width:1px;fill:red}.circle{fill:none;stroke:#000}</style><defs><marker id="arrow_normal" markerHeight="8" markerUnits="userSpaceOnUse" markerWidth="10" orient="auto" refX="0" refY="4"><path d="M 8 4 L 0 0 L 0 8 Z" class="normal_head"/></marker><g id="g_circle"><circle cx="125" cy="125" r="87.5" class="circle"/></g><g id="g_circle_normals"><line x1="125" x2="125" y1="37.5" y2="18.75" class="normal"/><line x1="87.035" x2="78.9" y1="46.165" y2="29.272" class="normal"/><line x1="56.59" x2="41.93" y1="70.445" y2="58.754" class="normal"/><line x1="39.694" x2="21.414" y1="105.529" y2="101.357" class="normal"/><line x1="39.694" x2="21.414" y1="144.471" y2="148.643" class="normal"/><line x1="56.59" x2="41.93" y1="179.555" y2="191.246" class="normal"/><line x1="87.035" x2="78.9" y1="203.835" y2="220.728" class="normal"/><line x1="125" x2="125" y1="212.5" y2="231.25" class="normal"/><line x1="162.965" x2="171.1" y1="203.835" y2="220.728" class="normal"/><line x1="193.41" x2="208.07" y1="179.555" y2="191.246" class="normal"/><line x1="210.306" x2="228.586" y1="144.471" y2="148.643" class="normal"/><line x1="210.306" x2="228.586" y1="105.529" y2="101.357" class="normal"/><line x1="193.41" x2="208.07" y1="70.445" y2="58.754" class="normal"/><line x1="162.965" x2="171.1" y1="46.165" y2="29.272" class="normal"/></g><g id="g_bad_normals"><line x1="125" x2="125" y1="96.125" y2="77.375" class="normal"/><line x1="87.035" x2="71.568" y1="98.985" y2="88.386" class="normal"/><line x1="56.59" x2="38.457" y1="106.997" y2="102.225" class="normal"/><line x1="39.694" x2="20.997" y1="118.575" y2="117.166" class="normal"/><line x1="39.694" x2="20.997" y1="131.425" y2="132.834" class="normal"/><line x1="56.59" x2="38.457" y1="143.003" y2="147.775" class="normal"/><line x1="87.035" x2="71.568" y1="151.015" y2="161.614" class="normal"/><line x1="125" x2="125" y1="153.875" y2="172.625" class="normal"/><line x1="162.965" x2="178.432" y1="151.015" y2="161.614" class="normal"/><line x1="193.41" x2="211.543" y1="143.003" y2="147.775" class="normal"/><line x1="210.306" x2="229.003" y1="131.425" y2="132.834" class="normal"/><line x1="210.306" x2="229.003" y1="118.575" y2="117.166" class="normal"/><line x1="193.41" x2="211.543" y1="106.997" y2="102.225" class="normal"/><line x1="162.965" x2="178.432" y1="98.985" y2="88.386" class="normal"/></g><g id="g_good_normals"><line x1="125" x2="125" y1="96.125" y2="77.375" class="normal"/><line x1="87.035" x2="84.092" y1="98.985" y2="80.467" class="normal"/><line x1="56.59" x2="49.42" y1="106.997" y2="89.672" class="normal"/><line x1="39.694" x2="24.273" y1="118.575" y2="107.909" class="normal"/><line x1="39.694" x2="24.273" y1="131.425" y2="142.091" class="normal"/><line x1="56.59" x2="49.42" y1="143.003" y2="160.328" class="normal"/><line x1="87.035" x2="84.092" y1="151.015" y2="169.533" class="normal"/><line x1="125" x2="125" y1="153.875" y2="172.625" class="normal"/><line x1="162.965" x2="165.908" y1="151.015" y2="169.533" class="normal"/><line x1="193.41" x2="200.58" y1="143.003" y2="160.328" class="normal"/><line x1="210.306" x2="225.727" y1="131.425" y2="142.091" class="normal"/><line x1="210.306" x2="225.727" y1="118.575" y2="107.909" class="normal"/><line x1="193.41" x2="200.58" y1="106.997" y2="89.672" class="normal"/><line x1="162.965" x2="165.908" y1="98.985" y2="80.467" class="normal"/></g><g id="g_ellipse"><ellipse cx="125" cy="125" class="circle" rx="87.5" ry="28.875"/></g></defs><use width="250" height="250" x="0" y="0" xlink:href="#g_circle"/><use width="250" height="250" x="0" y="0" xlink:href="#g_circle_normals"/><use width="250" height="250" x="300" y="0" xlink:href="#g_ellipse"/><use width="250" height="250" x="300" y="0" xlink:href="#g_bad_normals"/><use width="250" height="250" x="600" y="0" xlink:href="#g_ellipse"/><use width="250" height="250" x="600" y="0" xlink:href="#g_good_normals"/></svg>