<svg xmlns="http://www.w3.org/2000/svg" xmlns:svg="http://www.w3.org/2000/svg" xmlns:xlink="http://www.w3.org/1999/xlink" id="svg2" width="600" height="250" version="1.1"><title id="title3767">Cube Position Topology</title><metadata id="metadata7"/><g id="layer2" transform="translate(0,-100)"><path style="fill:none;stroke:#000;stroke-width:1px;stroke-linecap:butt;stroke-linejoin:miter;stroke-opacity:1" id="path3800" d="m 75.5,200.5 c 100,0 100,0 100,0 l 0,100 -100,0 z"/><path style="fill:none;stroke:#000;stroke-width:1px;stroke-linecap:butt;stroke-linejoin:miter;stroke-opacity:1" id="path3802" d="m 75.5,200.5 -40,-30 100,0 40,30"/><path style="fill:none;stroke:#000;stroke-width:1px;stroke-linecap:butt;stroke-linejoin:miter;stroke-opacity:1" id="path3806" d="m 35.5,170.5 0,100 40,30"/><path style="fill:none;stroke:#000;stroke-width:1;stroke-linecap:butt;stroke-linejoin:miter;stroke-miterlimit:4;stroke-opacity:1;stroke-dasharray:2,4;stroke-dashoffset:0" id="path3808" d="m 35.5,270.5 100,0 40,30"/><path style="fill:none;stroke:#000;stroke-width:1;stroke-linecap:butt;stroke-linejoin:miter;stroke-miterlimit:4;stroke-opacity:1;stroke-dasharray:2,4;stroke-dashoffset:0" id="path3810" d="m 135.5,270.5 0,-100"/><path style="fill:none;stroke:#000;stroke-width:1px;stroke-linecap:butt;stroke-linejoin:miter;stroke-opacity:1" id="path5428" d="M 531.99997,161.00012 C 529,150 517,137 512,135 c -6.75452,-2.70181 -10,-8 -10,-12 0,-4 1.02692,-5.90808 8,-8 10,-3 40,-3 50,0 7.18573,2.15572 8,4 8,8 0,4 -3.28632,9.31453 -10,12 -5,2 -17,15 -20.00003,26.00012"/><path style="fill:none;stroke:#000;stroke-width:1px;stroke-linecap:butt;stroke-linejoin:miter;stroke-opacity:1" id="path5529" d="m 490,120 c 30,-10 60,-10 90,0"/><use id="use5531" width="600" height="250" x="0" y="0" transform="matrix(-1,0,0,-1,1070,330.00012)" xlink:href="#path5428"/><use id="use5533" width="600" height="250" x="0" y="0" transform="matrix(-1,0,0,-1,1070,330.00012)" xlink:href="#path5529"/><use id="use5535" width="600" height="250" x="0" y="0" transform="matrix(0,-1,1,0,369.99988,699.99997)" xlink:href="#path5428"/><use id="use5537" width="600" height="250" x="0" y="0" transform="matrix(0,-1,1,0,369.99988,699.99997)" xlink:href="#path5529"/><use id="use5539" width="600" height="250" x="0" y="0" transform="matrix(0,1,-1,0,700.00012,-369.99997)" xlink:href="#path5428"/><use id="use5541" width="600" height="250" x="0" y="0" transform="matrix(0,1,-1,0,700.00012,-369.99997)" xlink:href="#path5529"/><use id="use5543" width="600" height="250" x="0" y="0" transform="translate(0.5,119.5)" xlink:href="#path5428"/><use id="use5545" width="600" height="250" x="0" y="0" transform="translate(0.5,119.5)" xlink:href="#path5529"/><use id="use5547" width="600" height="250" x="0" y="0" transform="translate(0.5,119.5)" xlink:href="#use5531"/><use id="use5549" width="600" height="250" x="0" y="0" transform="translate(0.5,119.5)" xlink:href="#use5533"/><use id="use5551" width="600" height="250" x="0" y="0" transform="translate(0.5,119.5)" xlink:href="#use5535"/><use id="use5553" width="600" height="250" x="0" y="0" transform="translate(0.5,119.5)" xlink:href="#use5537"/><use id="use5555" width="600" height="250" x="0" y="0" transform="translate(0.5,119.5)" xlink:href="#use5539"/><use id="use5557" width="600" height="250" x="0" y="0" transform="translate(0.5,119.5)" xlink:href="#use5541"/><use id="use5569" width="600" height="250" x="0" y="0" transform="translate(-119.5,-0.5)" xlink:href="#path5428"/><use id="use5571" width="600" height="250" x="0" y="0" transform="translate(-119.5,-0.5)" xlink:href="#path5529"/><use id="use5573" width="600" height="250" x="0" y="0" transform="translate(-119.5,-0.5)" xlink:href="#use5531"/><use id="use5575" width="600" height="250" x="0" y="0" transform="translate(-119.5,-0.5)" xlink:href="#use5533"/><use id="use5577" width="600" height="250" x="0" y="0" transform="translate(-119.5,-0.5)" xlink:href="#use5535"/><use id="use5579" width="600" height="250" x="0" y="0" transform="translate(-119.5,-0.5)" xlink:href="#use5537"/><use id="use5581" width="600" height="250" x="0" y="0" transform="translate(-119.5,-0.5)" xlink:href="#use5539"/><use id="use5583" width="600" height="250" x="0" y="0" transform="translate(-119.5,-0.5)" xlink:href="#use5541"/><use id="use5595" width="600" height="250" x="0" y="0" transform="translate(-120,120)" xlink:href="#path5428"/><use id="use5597" width="600" height="250" x="0" y="0" transform="translate(-120,120)" xlink:href="#path5529"/><use id="use5599" width="600" height="250" x="0" y="0" transform="translate(-120,120)" xlink:href="#use5531"/><use id="use5601" width="600" height="250" x="0" y="0" transform="translate(-120,120)" xlink:href="#use5533"/><use id="use5603" width="600" height="250" x="0" y="0" transform="translate(-120,120)" xlink:href="#use5535"/><use id="use5605" width="600" height="250" x="0" y="0" transform="translate(-120,120)" xlink:href="#use5537"/><use id="use5607" width="600" height="250" x="0" y="0" transform="translate(-120,120)" xlink:href="#use5539"/><use id="use5609" width="600" height="250" x="0" y="0" transform="translate(-120,120)" xlink:href="#use5541"/><use id="use5621" width="600" height="250" x="0" y="0" transform="translate(-239.5,-0.5)" xlink:href="#path5428"/><use id="use5623" width="600" height="250" x="0" y="0" transform="translate(-239.5,-0.5)" xlink:href="#path5529"/><use id="use5625" width="600" height="250" x="0" y="0" transform="translate(-239.5,-0.5)" xlink:href="#use5531"/><use id="use5627" width="600" height="250" x="0" y="0" transform="translate(-239.5,-0.5)" xlink:href="#use5533"/><use id="use5629" width="600" height="250" x="0" y="0" transform="translate(-239.5,-0.5)" xlink:href="#use5535"/><use id="use5631" width="600" height="250" x="0" y="0" transform="translate(-239.5,-0.5)" xlink:href="#use5537"/><use id="use5633" width="600" height="250" x="0" y="0" transform="translate(-239.5,-0.5)" xlink:href="#use5539"/><use id="use5635" width="600" height="250" x="0" y="0" transform="translate(-239.5,-0.5)" xlink:href="#use5541"/><use id="use5647" width="600" height="250" x="0" y="0" transform="translate(-239.5,119.5)" xlink:href="#path5428"/><use id="use5649" width="600" height="250" x="0" y="0" transform="translate(-239.5,119.5)" xlink:href="#path5529"/><use id="use5651" width="600" height="250" x="0" y="0" transform="translate(-239.5,119.5)" xlink:href="#use5531"/><use id="use5653" width="600" height="250" x="0" y="0" transform="translate(-239.5,119.5)" xlink:href="#use5533"/><use id="use5655" width="600" height="250" x="0" y="0" transform="translate(-239.5,119.5)" xlink:href="#use5535"/><use id="use5657" width="600" height="250" x="0" y="0" transform="translate(-239.5,119.5)" xlink:href="#use5537"/><use id="use5659" width="600" height="250" x="0" y="0" transform="translate(-239.5,119.5)" xlink:href="#use5539"/><use id="use5661" width="600" height="250" x="0" y="0" transform="translate(-239.5,119.5)" xlink:href="#use5541"/></g><g id="layer1" transform="translate(0,-802.36215)" style="display:inline"><rect id="use3943" width="10" height="10" x="120" y="947.362" rx="2" ry="2" style="fill:#000;fill-opacity:1;stroke:none"><title id="title5747">Normal Point</title></rect><rect id="use5410" width="10" height="10" x="80" y="917.362" rx="2" ry="2" style="fill:#000;fill-opacity:1;stroke:none"><title id="title5723">Normal Point</title></rect><rect id="use5412" width="12" height="12.462" x="-1211.264" y="1634.402" rx="2.4" ry="2.492" transform="matrix(1,0,0.79863337,0.60181787,0,0)" style="fill:#000;fill-opacity:1;stroke:none"><title id="title5727">Normal Point</title></rect><rect id="use5416" width="12" height="12.462" x="-1078.561" y="1468.238" rx="2.4" ry="2.492" transform="matrix(1,0,0.79863337,0.60181787,0,0)" style="fill:#000;fill-opacity:1;stroke:none"><title id="title5731">Normal Point</title></rect><rect id="use5418" width="10.152" height="11" x="64.72" y="888.892" rx="2.03" ry="2.2" transform="matrix(0.78801233,0.61565946,0,1,0,0)" style="fill:#000;fill-opacity:1;stroke:none"><title id="title5735">Normal Point</title></rect><rect id="use5420" width="10.152" height="11" x="191.621" y="810.763" rx="2.03" ry="2.2" transform="matrix(0.78801233,0.61565946,0,1,0,0)" style="fill:#000;fill-opacity:1;stroke:none"><title id="title5739">Normal Point</title></rect><rect id="use5424" width="10" height="10" x="530" y="862.362" rx="2" ry="2" style="fill:#000;fill-opacity:1;stroke:none"><title id="title5743">Normal Point</title></rect><path id="use5500" d="m -35,135 a 5,5 0 1 1 -10,0 5,5 0 1 1 10,0 z" transform="translate(115,767.36215)" style="fill:#000;fill-opacity:1;stroke:none"><title id="title5675">Position Point</title></path><path id="use5502" d="m -35,135 a 5,5 0 1 1 -10,0 5,5 0 1 1 10,0 z" transform="translate(215,767.36215)" style="fill:#000;fill-opacity:1;stroke:none"><title id="title5679">Position Point</title></path><path id="use5504" d="m -35,135 a 5,5 0 1 1 -10,0 5,5 0 1 1 10,0 z" transform="translate(75,737.36215)" style="fill:#000;fill-opacity:1;stroke:none"><title id="title5683">Position Point</title></path><path id="use5506" d="m -35,135 a 5,5 0 1 1 -10,0 5,5 0 1 1 10,0 z" transform="translate(175,737.36215)" style="fill:#000;fill-opacity:1;stroke:none"><title id="title5687">Position Point</title></path><path id="use5508" d="m -35,135 a 5,5 0 1 1 -10,0 5,5 0 1 1 10,0 z" transform="translate(75,837.36215)" style="fill:#000;fill-opacity:1;stroke:none"><title id="title5691">Position Point</title></path><path id="use5510" d="m -35,135 a 5,5 0 1 1 -10,0 5,5 0 1 1 10,0 z" transform="translate(115,867.36215)" style="fill:#000;fill-opacity:1;stroke:none"><title id="title5695">Position Point</title></path><path id="use5512" d="m -35,135 a 5,5 0 1 1 -10,0 5,5 0 1 1 10,0 z" transform="translate(175,837.36215)" style="fill:#000;fill-opacity:1;stroke:none"><title id="title5699">Position Point</title></path><path id="use5514" d="m -35,135 a 5,5 0 1 1 -10,0 5,5 0 1 1 10,0 z" transform="translate(215,867.36215)" style="fill:#000;fill-opacity:1;stroke:none"><title id="title5703">Position Point</title></path><path id="use5516" d="m -35,135 a 5,5 0 1 1 -10,0 5,5 0 1 1 10,0 z" transform="translate(530,687.36215)" style="fill:#000;fill-opacity:1;stroke:none"><title id="title5707">Position Point</title></path><path id="use5518" d="m -35,135 a 5,5 0 1 1 -10,0 5,5 0 1 1 10,0 z" transform="translate(620,687.36215)" style="fill:#000;fill-opacity:1;stroke:none"><title id="title5711">Position Point</title></path><path id="use5520" d="m -35,135 a 5,5 0 1 1 -10,0 5,5 0 1 1 10,0 z" transform="translate(620,777.36215)" style="fill:#000;fill-opacity:1;stroke:none"><title id="title5715">Position Point</title></path><path id="use5522" d="m -35,135 a 5,5 0 1 1 -10,0 5,5 0 1 1 10,0 z" transform="translate(530,777.36215)" style="fill:#000;fill-opacity:1;stroke:none"><title id="title5719">Position Point</title></path><use id="use5559" width="600" height="250" x="0" y="0" transform="translate(0.5,119.5)" xlink:href="#use5424"/><use id="use5561" width="600" height="250" x="0" y="0" transform="translate(0.5,119.5)" xlink:href="#use5516"/><use id="use5563" width="600" height="250" x="0" y="0" transform="translate(0.5,119.5)" xlink:href="#use5518"/><use id="use5565" width="600" height="250" x="0" y="0" transform="translate(0.5,119.5)" xlink:href="#use5520"/><use id="use5567" width="600" height="250" x="0" y="0" transform="translate(0.5,119.5)" xlink:href="#use5522"/><use id="use5585" width="600" height="250" x="0" y="0" transform="translate(-119.5,-0.5)" xlink:href="#use5424"/><use id="use5587" width="600" height="250" x="0" y="0" transform="translate(-119.5,-0.5)" xlink:href="#use5516"/><use id="use5589" width="600" height="250" x="0" y="0" transform="translate(-119.5,-0.5)" xlink:href="#use5518"/><use id="use5591" width="600" height="250" x="0" y="0" transform="translate(-119.5,-0.5)" xlink:href="#use5520"/><use id="use5593" width="600" height="250" x="0" y="0" transform="translate(-119.5,-0.5)" xlink:href="#use5522"/><use id="use5611" width="600" height="250" x="0" y="0" transform="translate(-120,120)" xlink:href="#use5424"/><use id="use5613" width="600" height="250" x="0" y="0" transform="translate(-120,120)" xlink:href="#use5516"/><use id="use5615" width="600" height="250" x="0" y="0" transform="translate(-120,120)" xlink:href="#use5518"/><use id="use5617" width="600" height="250" x="0" y="0" transform="translate(-120,120)" xlink:href="#use5520"/><use id="use5619" width="600" height="250" x="0" y="0" transform="translate(-120,120)" xlink:href="#use5522"/><use id="use5637" width="600" height="250" x="0" y="0" transform="translate(-239.5,-0.5)" xlink:href="#use5424"/><use id="use5639" width="600" height="250" x="0" y="0" transform="translate(-239.5,-0.5)" xlink:href="#use5516"/><use id="use5641" width="600" height="250" x="0" y="0" transform="translate(-239.5,-0.5)" xlink:href="#use5518"/><use id="use5643" width="600" height="250" x="0" y="0" transform="translate(-239.5,-0.5)" xlink:href="#use5520"/><use id="use5645" width="600" height="250" x="0" y="0" transform="translate(-239.5,-0.5)" xlink:href="#use5522"/><use id="use5663" width="600" height="250" x="0" y="0" transform="translate(-239.5,119.5)" xlink:href="#use5424"/><use id="use5665" width="600" height="250" x="0" y="0" transform="translate(-239.5,119.5)" xlink:href="#use5516"/><use id="use5667" width="600" height="250" x="0" y="0" transform="translate(-239.5,119.5)" xlink:href="#use5518"/><use id="use5669" width="600" height="250" x="0" y="0" transform="translate(-239.5,119.5)" xlink:href="#use5520"/><use id="use5671" width="600" height="250" x="0" y="0" transform="translate(-239.5,119.5)" xlink:href="#use5522"/></g></svg>