<svg xmlns="http://www.w3.org/2000/svg" xmlns:svg="http://www.w3.org/2000/svg" xmlns:xlink="http://www.w3.org/1999/xlink" id="svg2" width="600" height="250" version="1.1"><title id="title3767">Cube Position Topology</title><metadata id="metadata7"/><g id="layer2" transform="translate(0,-100)"><path style="fill:none;stroke:#000;stroke-width:1px;stroke-linecap:butt;stroke-linejoin:miter;stroke-opacity:1" id="path3800" d="m 75.5,200.5 c 100,0 100,0 100,0 l 0,100 -100,0 z"/><path style="fill:none;stroke:#000;stroke-width:1px;stroke-linecap:butt;stroke-linejoin:miter;stroke-opacity:1" id="path3802" d="m 75.5,200.5 -40,-30 100,0 40,30"/><path style="fill:none;stroke:#000;stroke-width:1px;stroke-linecap:butt;stroke-linejoin:miter;stroke-opacity:1" id="path3806" d="m 35.5,170.5 0,100 40,30"/><path style="fill:none;stroke:#000;stroke-width:1;stroke-linecap:butt;stroke-linejoin:miter;stroke-miterlimit:4;stroke-opacity:1;stroke-dasharray:2,4;stroke-dashoffset:0" id="path3808" d="m 35.5,270.5 100,0 40,30"/><path style="fill:none;stroke:#000;stroke-width:1;stroke-linecap:butt;stroke-linejoin:miter;stroke-miterlimit:4;stroke-opacity:1;stroke-dasharray:2,4;stroke-dashoffset:0" id="path3810" d="m 135.5,270.5 0,-100"/></g><g id="layer1" transform="translate(0,-802.36215)"><rect style="fill:#000;fill-opacity:1;stroke:none" id="rect3939" width="10" height="10" x="-45" y="110" rx="2" ry="2" transform="translate(0,802.36215)"><title id="title3941">Normal Point</title></rect><use id="use3943" width="600" height="250" x="0" y="0" transform="translate(165,35)" xlink:href="#rect3939"/><use id="use5408" x="0" y="0" xlink:href="#rect3939"/><use id="use5410" width="600" height="250" x="0" y="0" transform="translate(125,5)" xlink:href="#use5408"/><use id="use5412" width="600" height="250" x="0" y="0" transform="matrix(1.2,0,0.99527624,0.75,-760.02876,299.34054)" xlink:href="#use5408"/><use id="use5416" width="600" height="250" x="0" y="0" transform="matrix(1.2,0,0.99527624,0.75,-760.02876,199.34054)" xlink:href="#use5408"/><use id="use5418" width="600" height="250" x="0" y="0" transform="matrix(0.8,0.62502521,0,1.1,87,-46.735206)" xlink:href="#use5408"/><use id="use5420" width="600" height="250" x="0" y="0" transform="matrix(0.8,0.62502521,0,1.1,187,-46.735206)" xlink:href="#use5408"/><rect style="fill:none;stroke:#b4b4b4;stroke-opacity:1" id="rect5422" width="90" height="90" x="490.5" y="822.862" rx="0" ry="0"/><use id="use5424" width="600" height="250" x="0" y="0" transform="translate(575.49997,-49.499917)" xlink:href="#use5408"/><path style="fill:none;stroke:#000;stroke-width:1px;stroke-linecap:butt;stroke-linejoin:miter;stroke-opacity:1" id="path5428" d="m 532.49997,863.86224 c -0.64241,-6.42411 -4,-13 -12,-16 -15.14765,-5.68037 -8.50484,-17.59806 -5,-19 10,-4 30,-4 40,0 3.52687,1.41075 9.99839,13.3756 -5,19 -8,3 -11.35648,9.56481 -12,16"/><use id="use5430" width="600" height="250" x="0" y="0" transform="matrix(-1,0,0,-1,1071,1735.7243)" xlink:href="#path5428"/><use id="use5432" width="600" height="250" x="0" y="0" transform="matrix(0,-1,1,0,-332.36227,1403.3622)" xlink:href="#path5428"/><use id="use5434" width="600" height="250" x="0" y="0" transform="matrix(0,1,-1,0,1403.3622,332.36227)" xlink:href="#path5428"/><use id="use5436" width="600" height="250" x="0" y="0" transform="translate(1.7578125e-8,120)" xlink:href="#rect5422"/><use id="use5438" width="600" height="250" x="0" y="0" transform="translate(1.7578125e-8,120)" xlink:href="#use5424"/><use id="use5440" width="600" height="250" x="0" y="0" transform="translate(1.7578125e-8,120)" xlink:href="#path5428"/><use id="use5442" width="600" height="250" x="0" y="0" transform="translate(1.7578125e-8,120)" xlink:href="#use5430"/><use id="use5444" width="600" height="250" x="0" y="0" transform="translate(1.7578125e-8,120)" xlink:href="#use5432"/><use id="use5446" width="600" height="250" x="0" y="0" transform="translate(1.7578125e-8,120)" xlink:href="#use5434"/><use id="use5448" width="600" height="250" x="0" y="0" transform="translate(-110.49998,-0.49997158)" xlink:href="#rect5422"/><use id="use5450" width="600" height="250" x="0" y="0" transform="translate(-110.49998,-0.49997158)" xlink:href="#use5424"/><use id="use5452" width="600" height="250" x="0" y="0" transform="translate(-110.49998,-0.49997158)" xlink:href="#path5428"/><use id="use5454" width="600" height="250" x="0" y="0" transform="translate(-110.49998,-0.49997158)" xlink:href="#use5430"/><use id="use5456" width="600" height="250" x="0" y="0" transform="translate(-110.49998,-0.49997158)" xlink:href="#use5432"/><use id="use5458" width="600" height="250" x="0" y="0" transform="translate(-110.49998,-0.49997158)" xlink:href="#use5434"/><use id="use5460" width="600" height="250" x="0" y="0" transform="translate(-110.49998,119.50003)" xlink:href="#rect5422"/><use id="use5462" width="600" height="250" x="0" y="0" transform="translate(-110.49998,119.50003)" xlink:href="#use5424"/><use id="use5464" width="600" height="250" x="0" y="0" transform="translate(-110.49998,119.50003)" xlink:href="#path5428"/><use id="use5466" width="600" height="250" x="0" y="0" transform="translate(-110.49998,119.50003)" xlink:href="#use5430"/><use id="use5468" width="600" height="250" x="0" y="0" transform="translate(-110.49998,119.50003)" xlink:href="#use5432"/><use id="use5470" width="600" height="250" x="0" y="0" transform="translate(-110.49998,119.50003)" xlink:href="#use5434"/><use id="use5472" width="600" height="250" x="0" y="0" transform="translate(-220.49998,-0.49997158)" xlink:href="#rect5422"/><use id="use5474" width="600" height="250" x="0" y="0" transform="translate(-220.49998,-0.49997158)" xlink:href="#use5424"/><use id="use5476" width="600" height="250" x="0" y="0" transform="translate(-220.49998,-0.49997158)" xlink:href="#path5428"/><use id="use5478" width="600" height="250" x="0" y="0" transform="translate(-220.49998,-0.49997158)" xlink:href="#use5430"/><use id="use5480" width="600" height="250" x="0" y="0" transform="translate(-220.49998,-0.49997158)" xlink:href="#use5432"/><use id="use5482" width="600" height="250" x="0" y="0" transform="translate(-220.49998,-0.49997158)" xlink:href="#use5434"/><use id="use5484" width="600" height="250" x="0" y="0" transform="translate(-220.49998,119.50003)" xlink:href="#rect5422"/><use id="use5486" width="600" height="250" x="0" y="0" transform="translate(-220.49998,119.50003)" xlink:href="#use5424"/><use id="use5488" width="600" height="250" x="0" y="0" transform="translate(-220.49998,119.50003)" xlink:href="#path5428"/><use id="use5490" width="600" height="250" x="0" y="0" transform="translate(-220.49998,119.50003)" xlink:href="#use5430"/><use id="use5492" width="600" height="250" x="0" y="0" transform="translate(-220.49998,119.50003)" xlink:href="#use5432"/><use id="use5494" width="600" height="250" x="0" y="0" transform="translate(-220.49998,119.50003)" xlink:href="#use5434"/></g></svg>