<svg xmlns="http://www.w3.org/2000/svg" xmlns:svg="http://www.w3.org/2000/svg" xmlns:xlink="http://www.w3.org/1999/xlink" id="svg2" width="600" height="250" version="1.1"><title id="title3767">Cube Position Topology</title><metadata id="metadata7"/><g id="layer2" transform="translate(0,-100)"><path style="fill:none;stroke:#000;stroke-width:1px;stroke-linecap:butt;stroke-linejoin:miter;stroke-opacity:1" id="path3800" d="m 75.5,200.5 c 100,0 100,0 100,0 l 0,100 -100,0 z"/><path style="fill:none;stroke:#000;stroke-width:1px;stroke-linecap:butt;stroke-linejoin:miter;stroke-opacity:1" id="path3802" d="m 75.5,200.5 -40,-30 100,0 40,30"/><path style="fill:none;stroke:#000;stroke-width:1px;stroke-linecap:butt;stroke-linejoin:miter;stroke-opacity:1" id="path3806" d="m 35.5,170.5 0,100 40,30"/><path style="fill:none;stroke:#000;stroke-width:1;stroke-linecap:butt;stroke-linejoin:miter;stroke-miterlimit:4;stroke-opacity:1;stroke-dasharray:2,4;stroke-dashoffset:0" id="path3808" d="m 35.5,270.5 100,0 40,30"/><path style="fill:none;stroke:#000;stroke-width:1;stroke-linecap:butt;stroke-linejoin:miter;stroke-miterlimit:4;stroke-opacity:1;stroke-dasharray:2,4;stroke-dashoffset:0" id="path3810" d="m 135.5,270.5 0,-100"/><path style="fill:none;stroke:#000;stroke-width:1px;stroke-linecap:butt;stroke-linejoin:miter;stroke-opacity:1" id="path3900" d="m 335,135 c 40,-15 140,-15 180,0"/><use id="use3913" width="700" height="350" x="0" y="0" transform="matrix(-1,0,0,-1,850,450)" xlink:href="#path3900"/><use id="use3915" width="700" height="350" x="0" y="0" transform="matrix(0,-1,1,0,200,650)" xlink:href="#use3913"/><use id="use3917" width="700" height="350" x="0" y="0" transform="matrix(-1,0,0,-1,849.5,450.5)" xlink:href="#use3915"/><path style="fill:none;stroke:#000;stroke-width:1px;stroke-linecap:butt;stroke-linejoin:miter;stroke-opacity:1" id="path3919" d="m 375,175 c 30,-10 70,-10 100,0"/><use id="use3921" width="700" height="350" x="0" y="0" transform="matrix(-1,0,0,-1,850,450)" xlink:href="#path3919"/><use id="use3923" width="700" height="350" x="0" y="0" transform="matrix(0,-1,1,0,200,650)" xlink:href="#path3919"/><use id="use3925" width="700" height="350" x="0" y="0" transform="matrix(-1,0,0,-1,850,450)" xlink:href="#use3923"/><path style="fill:none;stroke:#000;stroke-width:1px;stroke-linecap:butt;stroke-linejoin:miter;stroke-opacity:1" id="path3927" d="m 335,135 40,40"/><path style="fill:none;stroke:#000;stroke-width:1px;stroke-linecap:butt;stroke-linejoin:miter;stroke-opacity:1" id="path3929" d="m 375,275 -40,40"/><path style="fill:none;stroke:#000;stroke-width:1px;stroke-linecap:butt;stroke-linejoin:miter;stroke-opacity:1" id="path3931" d="m 475,275 40,40"/><path style="fill:none;stroke:#000;stroke-width:1px;stroke-linecap:butt;stroke-linejoin:miter;stroke-opacity:1" id="path3933" d="m 475,175 40,-40"/></g><g id="layer1" transform="translate(0,-802.36215)"><path id="use3773" d="m -30,125 c 0,2.76142 -2.238576,5 -5,5 -2.761424,0 -5,-2.23858 -5,-5 0,-2.76142 2.238576,-5 5,-5 2.761424,0 5,2.23858 5,5 z" transform="translate(110,877.36215)" style="fill:#000;fill-opacity:1;stroke:none"><title id="title3937">Position Dot</title></path><use id="use3775" width="700" height="350" x="0" y="0" transform="translate(100,0)" xlink:href="#use3773"/><use id="use3777" width="700" height="350" x="0" y="0" transform="translate(0,-100)" xlink:href="#use3773"/><use id="use3779" width="700" height="350" x="0" y="0" transform="translate(0,-100)" xlink:href="#use3775"/><use id="use3792" width="700" height="350" x="0" y="0" transform="translate(-40,-30)" xlink:href="#use3777"/><use id="use3794" width="700" height="350" x="0" y="0" transform="translate(0,100)" xlink:href="#use3792"/><use id="use3796" width="700" height="350" x="0" y="0" transform="translate(100,0)" xlink:href="#use3794"/><use id="use3798" width="700" height="350" x="0" y="0" transform="translate(0,-100)" xlink:href="#use3796"/><use id="use3884" width="700" height="350" x="0" y="0" transform="translate(200,-25)" xlink:href="#use3779"/><use id="use3886" width="700" height="350" x="0" y="0" transform="translate(100,0)" xlink:href="#use3884"/><use id="use3888" width="700" height="350" x="0" y="0" transform="translate(0,100)" xlink:href="#use3884"/><use id="use3890" width="700" height="350" x="0" y="0" transform="translate(0,100)" xlink:href="#use3886"/><use id="use3892" width="700" height="350" x="0" y="0" transform="translate(-40,-40)" xlink:href="#use3884"/><use id="use3894" width="700" height="350" x="0" y="0" transform="translate(0,180)" xlink:href="#use3892"/><use id="use3896" width="700" height="350" x="0" y="0" transform="translate(180,0)" xlink:href="#use3892"/><use id="use3898" width="700" height="350" x="0" y="0" transform="translate(180,0)" xlink:href="#use3894"/></g></svg>