<svg xmlns="http://www.w3.org/2000/svg" xmlns:xlink="http://www.w3.org/1999/xlink" width="500" height="200" version="1.1"><style type="text/css">.arrowhead{fill:#00008b;stroke:#00008b}.light,.surface{fill:#ff0;stroke:none}.surface{fill:#add8e6}.ray{marker-end:url(#arrow);stroke:#00008b;stroke-dasharray:3,3;stroke-width:1px}</style><defs><marker id="arrow" markerHeight="8" markerUnits="userSpaceOnUse" markerWidth="10" orient="auto" refX="0" refY="4"><path d="M 10 4 L 0 0 L 0 8 Z" class="arrowhead"/></marker><g id="g_surface"><rect width="500" height="60" x="0" y="140" class="surface"/></g></defs><use width="500" height="200" x="0" y="0" xlink:href="#g_surface"/><circle cx="250" cy="50" r="10" class="light"/><line x1="31.25" x2="62.076" y1="140" y2="127.317" class="ray"/><line x1="62.5" x2="92.551" y1="140" y2="125.576" class="ray"/><line x1="93.75" x2="122.634" y1="140" y2="123.363" class="ray"/><line x1="125" x2="152.051" y1="140" y2="120.523" class="ray"/><line x1="156.25" x2="180.296" y1="140" y2="116.916" class="ray"/><line x1="187.5" x2="206.513" y1="140" y2="112.621" class="ray"/><line x1="218.75" x2="229.684" y1="140" y2="108.511" class="ray"/><line x1="250" x2="250" y1="140" y2="106.667" class="ray"/><line x1="281.25" x2="270.316" y1="140" y2="108.511" class="ray"/><line x1="312.5" x2="293.487" y1="140" y2="112.621" class="ray"/><line x1="343.75" x2="319.704" y1="140" y2="116.916" class="ray"/><line x1="375" x2="347.949" y1="140" y2="120.523" class="ray"/><line x1="406.25" x2="377.366" y1="140" y2="123.363" class="ray"/><line x1="437.5" x2="407.449" y1="140" y2="125.576" class="ray"/><line x1="468.75" x2="437.924" y1="140" y2="127.317" class="ray"/></svg>