<svg xmlns="http://www.w3.org/2000/svg" xmlns:xlink="http://www.w3.org/1999/xlink" width="400" height="350" version="1.1"><style type="text/css">.light{fill:#ff0;stroke:none}.arrowhead{fill:#00008b;stroke:#00008b}.surface{fill:#add8e6;stroke:none}.ray{marker-end:url(#arrow);stroke:#00008b;stroke-dasharray:3,3;stroke-width:1px}</style><defs><marker id="arrow" markerHeight="8" markerUnits="userSpaceOnUse" markerWidth="10" orient="auto" refX="10" refY="4"><path d="M 10 4 L 0 0 L 0 8 Z" class="arrowhead"/></marker><g id="g_surface"><rect width="75" height="150" x="325" y="0" class="surface"/></g></defs><use width="400" height="150" x="0" y="0" xlink:href="#g_surface"/><circle cx="50" cy="75" r="10" class="light"/><use width="400" height="150" x="0" y="200" xlink:href="#g_surface"/><circle cx="275" cy="275" r="10" class="light"/><line x1="325" x2="251.521" y1="131.25" y2="116.22" class="ray"/><line x1="325" x2="250.688" y1="112.5" y2="102.367" class="ray"/><line x1="325" x2="250.174" y1="93.75" y2="88.648" class="ray"/><line x1="325" x2="250" y1="75" y2="75" class="ray"/><line x1="325" x2="250.174" y1="56.25" y2="61.352" class="ray"/><line x1="325" x2="250.688" y1="37.5" y2="47.633" class="ray"/><line x1="325" x2="251.521" y1="18.75" y2="33.78" class="ray"/><line x1="325" x2="300.086" y1="331.25" y2="303.222" class="ray"/><line x1="325" x2="295" y1="312.5" y2="290" class="ray"/><line x1="325" x2="289.888" y1="293.75" y2="280.583" class="ray"/><line x1="325" x2="287.5" y1="275" y2="275" class="ray"/><line x1="325" x2="289.888" y1="256.25" y2="269.417" class="ray"/><line x1="325" x2="295" y1="237.5" y2="260" class="ray"/><line x1="325" x2="300.086" y1="218.75" y2="246.778" class="ray"/></svg>