<svg xmlns="http://www.w3.org/2000/svg" xmlns:xlink="http://www.w3.org/1999/xlink" width="500" height="300" version="1.1"><style type="text/css">.ray-red,.ray-seashell{stroke-width:1px;stroke:red}.ray-seashell{stroke:#fff5ee}.surface{fill:#add8e6;stroke:none}.ray-gainsboro,.ray-orange{stroke-width:1px}.ray-orange{stroke:orange}.ray-gainsboro{stroke:#dcdcdc}.ray-blue{stroke-width:1px;stroke:#00f}.ray-darksalmon,.ray-fuchsia{stroke-width:1px;stroke:#f0f}.ray-darksalmon{stroke:#e9967a}.ray-lightblue{stroke:#add8e6}.ray-gold,.ray-lightblue,.ray-violet{stroke-width:1px}.ray-violet{stroke:violet}.ray-gold{stroke:gold}.light{fill:#ff0;stroke:none}</style><defs><marker id="arrow" markerHeight="8" markerUnits="userSpaceOnUse" markerWidth="10" orient="auto" refX="10" refY="4"><path d="M 10 4 L 0 0 L 0 8 Z" class="arrowhead"/></marker><marker id="arrow-sum" markerHeight="8" markerUnits="userSpaceOnUse" markerWidth="10" orient="auto" refX="10" refY="4"><path d="M 10 4 L 0 0 L 0 8 Z" class="arrowhead-sum"/></marker></defs><line x1="40" x2="130" y1="60" y2="240" class="ray-blue"/><line x1="40" x2="145" y1="60" y2="240" class="ray-lightblue"/><line x1="40" x2="160" y1="60" y2="240" class="ray-orange"/><line x1="40" x2="175" y1="60" y2="240" class="ray-red"/><line x1="40" x2="190" y1="60" y2="240" class="ray-blue"/><line x1="40" x2="205" y1="60" y2="240" class="ray-lightblue"/><line x1="40" x2="220" y1="60" y2="240" class="ray-violet"/><line x1="40" x2="235" y1="60" y2="240" class="ray-gainsboro"/><line x1="40" x2="250" y1="60" y2="240" class="ray-seashell"/><line x1="40" x2="265" y1="60" y2="240" class="ray-lightblue"/><line x1="40" x2="280" y1="60" y2="240" class="ray-fuchsia"/><line x1="40" x2="295" y1="60" y2="240" class="ray-darksalmon"/><line x1="40" x2="310" y1="60" y2="240" class="ray-lightblue"/><line x1="40" x2="325" y1="60" y2="240" class="ray-gold"/><line x1="40" x2="340" y1="60" y2="240" class="ray-lightblue"/><line x1="250" x2="145" y1="60" y2="240" class="ray-lightblue"/><line x1="370" x2="205" y1="60" y2="240" class="ray-lightblue"/><line x1="490" x2="265" y1="60" y2="240" class="ray-lightblue"/><line x1="580" x2="310" y1="60" y2="240" class="ray-lightblue"/><line x1="640" x2="340" y1="60" y2="240" class="ray-lightblue"/><rect width="500" height="90" x="0" y="240" class="surface"/><circle cx="40" cy="60" r="20" class="light"/></svg>